<?xml version="1.0" standalone="no"?>
<!DOCTYPE svg PUBLIC "-//W3C//DTD SVG 20010904//EN"
 "http://www.w3.org/TR/2001/REC-SVG-20010904/DTD/svg10.dtd">
<svg version="1.0" xmlns="http://www.w3.org/2000/svg"
 width="19" height="20" viewBox="0 0 1280.000000 1280.000000"
 preserveAspectRatio="xMidYMid meet">
<metadata>
Created by potrace 1.16, written by Peter Selinger 2001-2019
</metadata>
<g transform="translate(0.000000,1280.000000) scale(0.100000,-0.100000)"
fill="#000000" stroke="none">
<path d="M6155 12794 c-1318 -100 -2485 -554 -3490 -1359 -1789 -1432 -2676
-3724 -2329 -6015 254 -1678 1140 -3166 2491 -4181 819 -616 1770 -1016 2794
-1173 352 -54 461 -61 939 -61 466 0 545 5 900 56 1664 237 3202 1184 4198
2587 347 488 617 1012 828 1602 45 127 48 141 48 235 0 87 -3 107 -25 155 -32
69 -79 115 -149 149 l-55 26 -575 -3 c-316 -2 -576 -5 -578 -7 -2 -2 8 -72 22
-156 56 -326 57 -629 6 -893 -83 -426 -315 -778 -651 -988 -88 -55 -109 -65
-294 -143 -369 -156 -659 -383 -839 -657 -120 -183 -206 -268 -271 -268 -39 0
-60 22 -85 88 -57 149 -22 389 88 608 103 203 288 402 514 550 232 153 331
237 439 372 238 297 317 685 228 1116 -26 124 -116 396 -131 396 -25 1 -252
55 -308 73 -179 60 -345 156 -468 271 l-70 67 -7 -58 c-4 -32 -18 -132 -32
-223 -126 -835 -374 -1411 -793 -1844 -188 -193 -373 -330 -609 -450 -457
-231 -978 -340 -1631 -340 -222 0 -287 4 -405 22 -470 73 -859 249 -1213 547
l-102 87 -53 -21 c-194 -77 -378 -106 -672 -106 -309 0 -500 32 -797 132 -138
46 -138 46 -144 81 -4 19 -4 92 -1 161 15 375 227 898 594 1470 l61 93 -24 87
c-14 47 -42 174 -64 281 -68 341 -102 623 -121 1002 -25 530 43 1185 179 1723
l28 110 -72 111 c-175 269 -359 625 -453 876 -94 251 -136 462 -130 646 4 117
-1 109 104 146 478 169 954 198 1380 86 61 -16 127 -36 149 -45 l39 -16 36 33
c297 278 737 499 1142 576 208 40 290 47 549 46 983 -2 1715 -260 2226 -785
120 -124 181 -200 274 -340 268 -405 444 -938 531 -1601 11 -90 23 -169 25
-177 3 -10 25 5 67 46 174 170 421 285 742 345 120 23 124 23 1135 23 1141 0
1073 -4 1163 75 71 62 92 122 92 255 0 107 -2 114 -54 260 -252 711 -598 1335
-1059 1910 -280 349 -692 755 -1046 1031 -852 662 -1847 1087 -2911 1243 -311
46 -417 53 -840 56 -225 1 -432 1 -460 -1z"/>
</g>
</svg>
