<svg width="241" height="22" viewBox="0 0 241 22" fill="none" xmlns="http://www.w3.org/2000/svg">
<path d="M13.4 20.856H1.184C0.8 20.856 0.52 20.768 0.344 20.592C0.168 20.416 0.08 20.136 0.08 19.752V4.2C0.08 3.992 0.104 3.816 0.152 3.672C0.216 3.528 0.304 3.408 0.416 3.312L3.512 0.696C3.592 0.631999 3.696 0.583999 3.824 0.551999C3.968 0.503999 4.12 0.48 4.28 0.48H8C8.384 0.48 8.664 0.567999 8.84 0.743999C9.016 0.92 9.104 1.2 9.104 1.584V11.352L9.152 11.304L12.248 8.688C12.328 8.624 12.432 8.576 12.56 8.544C12.704 8.496 12.856 8.472 13.016 8.472H16.496C16.88 8.472 17.16 8.56 17.336 8.736C17.512 8.912 17.6 9.192 17.6 9.576V17.136C17.6 17.344 17.568 17.52 17.504 17.664C17.456 17.808 17.376 17.928 17.264 18.024L14.144 20.616C14.08 20.68 13.976 20.736 13.832 20.784C13.704 20.832 13.56 20.856 13.4 20.856ZM16.496 18C16.8 18 17.016 17.936 17.144 17.808C17.288 17.664 17.36 17.44 17.36 17.136V9.576C17.36 9.272 17.288 9.056 17.144 8.928C17.016 8.784 16.8 8.712 16.496 8.712H13.016C12.712 8.712 12.488 8.784 12.344 8.928C12.216 9.056 12.152 9.272 12.152 9.576V13.464H8.864V1.584C8.864 1.28 8.792 1.064 8.648 0.935999C8.52 0.791999 8.304 0.719999 8 0.719999H4.28C3.976 0.719999 3.752 0.791999 3.608 0.935999C3.48 1.064 3.416 1.28 3.416 1.584V17.136C3.416 17.44 3.48 17.664 3.608 17.808C3.752 17.936 3.976 18 4.28 18H16.496ZM6.032 15.84V2.88H6.272V15.6H14.624V10.872H14.864V15.84H6.032ZM31.3981 20.856H20.2621C19.8781 20.856 19.5981 20.768 19.4221 20.592C19.2461 20.416 19.1581 20.136 19.1581 19.752V4.2C19.1581 3.992 19.1821 3.816 19.2301 3.672C19.2941 3.528 19.3821 3.408 19.4941 3.312L22.5901 0.696C22.6701 0.631999 22.7741 0.583999 22.9021 0.551999C23.0461 0.503999 23.1981 0.48 23.3581 0.48H34.4941C34.8781 0.48 35.1581 0.567999 35.3341 0.743999C35.5101 0.92 35.5981 1.2 35.5981 1.584V4.392C35.5981 4.6 35.5661 4.776 35.5021 4.92C35.4541 5.064 35.3741 5.184 35.2621 5.28L33.1981 6.984C33.3581 7.064 33.4701 7.184 33.5341 7.344C33.6141 7.504 33.6541 7.712 33.6541 7.968V10.536C33.6541 10.744 33.6221 10.92 33.5581 11.064C33.5101 11.208 33.4301 11.328 33.3181 11.424L31.1821 13.224H34.4941C34.8781 13.224 35.1581 13.312 35.3341 13.488C35.5101 13.664 35.5981 13.944 35.5981 14.328V17.136C35.5981 17.344 35.5661 17.52 35.5021 17.664C35.4541 17.808 35.3741 17.928 35.2621 18.024L32.1421 20.616C32.0781 20.68 31.9741 20.736 31.8301 20.784C31.7021 20.832 31.5581 20.856 31.3981 20.856ZM34.4941 18C34.7981 18 35.0141 17.936 35.1421 17.808C35.2861 17.664 35.3581 17.44 35.3581 17.136V14.328C35.3581 14.024 35.2861 13.808 35.1421 13.68C35.0141 13.536 34.7981 13.464 34.4941 13.464H27.8701V11.4H32.5501C32.8541 11.4 33.0701 11.336 33.1981 11.208C33.3421 11.064 33.4141 10.84 33.4141 10.536V7.968C33.4141 7.664 33.3421 7.448 33.1981 7.32C33.0701 7.176 32.8541 7.104 32.5501 7.104H27.8701V5.256H34.4941C34.7981 5.256 35.0141 5.192 35.1421 5.064C35.2861 4.92 35.3581 4.696 35.3581 4.392V1.584C35.3581 1.28 35.2861 1.064 35.1421 0.935999C35.0141 0.791999 34.7981 0.719999 34.4941 0.719999H23.3581C23.0541 0.719999 22.8301 0.791999 22.6861 0.935999C22.5581 1.064 22.4941 1.28 22.4941 1.584V17.136C22.4941 17.44 22.5581 17.664 22.6861 17.808C22.8301 17.936 23.0541 18 23.3581 18H34.4941ZM33.1981 15.6V15.84H25.1101V2.88H33.1981V3.12H25.3501V9.144H31.2541V9.384H25.3501V15.6H33.1981ZM43.7559 3.072L52.5879 13.008V2.88H52.8279V15.84H52.5879V13.368L43.5159 3.192C43.4999 3.176 43.4759 3.16 43.4439 3.144C43.4279 3.128 43.4119 3.12 43.3959 3.12C43.3799 3.12 43.3639 3.128 43.3479 3.144C43.3479 3.16 43.3479 3.176 43.3479 3.192V15.84H43.1079V3.144C43.1079 3.048 43.1399 2.976 43.2039 2.928C43.2679 2.88 43.3319 2.856 43.3959 2.856C43.4599 2.856 43.5159 2.872 43.5639 2.904C43.6119 2.936 43.6759 2.992 43.7559 3.072ZM45.0519 18C45.3559 18 45.5719 17.936 45.6999 17.808C45.8439 17.664 45.9159 17.44 45.9159 17.136V9.216L50.0199 14.184V17.136C50.0199 17.44 50.0839 17.664 50.2119 17.808C50.3559 17.936 50.5799 18 50.8839 18H54.4839C54.7879 18 55.0039 17.936 55.1319 17.808C55.2759 17.664 55.3479 17.44 55.3479 17.136V1.584C55.3479 1.28 55.2759 1.064 55.1319 0.935999C55.0039 0.791999 54.7879 0.719999 54.4839 0.719999H50.8839C50.5799 0.719999 50.3559 0.791999 50.2119 0.935999C50.0839 1.064 50.0199 1.28 50.0199 1.584V6.696L45.3639 1.368C45.1559 1.128 44.9399 0.96 44.7159 0.863999C44.5079 0.767999 44.2519 0.719999 43.9479 0.719999H41.4519C41.1479 0.719999 40.9239 0.791999 40.7799 0.935999C40.6519 1.064 40.5879 1.28 40.5879 1.584V17.136C40.5879 17.44 40.6519 17.664 40.7799 17.808C40.9239 17.936 41.1479 18 41.4519 18H45.0519ZM45.8199 18.024L42.6999 20.616C42.6359 20.68 42.5319 20.736 42.3879 20.784C42.2599 20.832 42.1159 20.856 41.9559 20.856H38.3559C37.9719 20.856 37.6919 20.768 37.5159 20.592C37.3399 20.416 37.2519 20.136 37.2519 19.752V4.2C37.2519 3.992 37.2759 3.816 37.3239 3.672C37.3879 3.528 37.4759 3.408 37.5879 3.312L40.6839 0.696C40.7639 0.631999 40.8679 0.583999 40.9959 0.551999C41.1399 0.503999 41.2919 0.48 41.4519 0.48H43.9479C44.2999 0.48 44.5959 0.535999 44.8359 0.647999C45.0759 0.759999 45.3159 0.943999 45.5559 1.2L47.2119 3.12L50.1159 0.696C50.1959 0.631999 50.2999 0.583999 50.4279 0.551999C50.5719 0.503999 50.7239 0.48 50.8839 0.48H54.4839C54.8679 0.48 55.1479 0.567999 55.3239 0.743999C55.4999 0.92 55.5879 1.2 55.5879 1.584V17.136C55.5879 17.344 55.5559 17.52 55.4919 17.664C55.4439 17.808 55.3639 17.928 55.2519 18.024L52.1319 20.616C52.0679 20.68 51.9639 20.736 51.8199 20.784C51.6919 20.832 51.5479 20.856 51.3879 20.856H47.7879C47.4039 20.856 47.1239 20.768 46.9479 20.592C46.7719 20.416 46.6839 20.136 46.6839 19.752V16.896L46.1559 16.248V17.136C46.1559 17.344 46.1239 17.52 46.0599 17.664C46.0119 17.808 45.9319 17.928 45.8199 18.024ZM63.4728 10.728V11.472H72.8328V10.728C72.8328 10.296 72.7928 9.896 72.7128 9.528C72.6488 9.16 72.5608 8.816 72.4488 8.496L70.7928 4.584C70.6168 4.168 70.4328 3.824 70.2408 3.552C70.0488 3.264 69.7288 3.12 69.2808 3.12H66.9288C66.4488 3.12 66.1128 3.264 65.9208 3.552C65.7288 3.824 65.5528 4.16 65.3928 4.56L63.8568 8.496C63.7448 8.816 63.6488 9.16 63.5688 9.528C63.5048 9.896 63.4728 10.296 63.4728 10.728ZM67.3128 5.76C67.3768 5.616 67.4408 5.512 67.5048 5.448C67.5848 5.384 67.6728 5.352 67.7688 5.352H68.3688C68.4648 5.352 68.5448 5.384 68.6088 5.448C68.6888 5.512 68.7608 5.616 68.8248 5.76L69.9528 9.408H66.1848L67.3128 5.76ZM72.8328 15.84V11.712H63.4728V15.84H63.2328V10.728C63.2328 10.28 63.2648 9.872 63.3288 9.504C63.4088 9.12 63.5128 8.752 63.6408 8.4L65.1768 4.464C65.3528 4.016 65.5528 3.64 65.7768 3.336C66.0008 3.032 66.3848 2.88 66.9288 2.88H69.2808C69.8088 2.88 70.1768 3.032 70.3848 3.336C70.6088 3.64 70.8168 4.024 71.0088 4.488L72.6648 8.4C72.7928 8.752 72.8888 9.12 72.9528 9.504C73.0328 9.872 73.0728 10.28 73.0728 10.728V15.84H72.8328ZM65.9448 17.136V13.776H70.1928V17.136C70.1928 17.44 70.2648 17.664 70.4088 17.808C70.5688 17.936 70.8088 18 71.1288 18H74.7528C75.0568 18 75.2728 17.936 75.4008 17.808C75.5448 17.664 75.6168 17.44 75.6168 17.136V10.8C75.6168 10.32 75.5368 9.768 75.3768 9.144C75.2328 8.52 75.0008 7.792 74.6808 6.96L72.5928 1.512C72.4968 1.24 72.3448 1.04 72.1368 0.912C71.9448 0.783999 71.6968 0.719999 71.3928 0.719999H64.9368C64.6168 0.719999 64.3528 0.783999 64.1448 0.912C63.9528 1.04 63.8088 1.24 63.7128 1.512L61.6248 6.96C61.3048 7.792 61.0648 8.52 60.9048 9.144C60.7608 9.768 60.6888 10.32 60.6888 10.8V17.136C60.6888 17.44 60.7528 17.664 60.8808 17.808C61.0248 17.936 61.2488 18 61.5528 18H65.0808C65.3848 18 65.6008 17.936 65.7288 17.808C65.8728 17.664 65.9448 17.44 65.9448 17.136ZM62.7288 20.616C62.6648 20.68 62.5608 20.736 62.4168 20.784C62.2888 20.832 62.1448 20.856 61.9848 20.856H58.4568C58.0728 20.856 57.7928 20.768 57.6168 20.592C57.4408 20.416 57.3528 20.136 57.3528 19.752V13.416C57.3528 12.92 57.4248 12.36 57.5688 11.736C57.7288 11.096 57.9768 10.344 58.3128 9.48L60.3768 4.056C60.4248 3.912 60.4808 3.792 60.5448 3.696C60.6248 3.584 60.7048 3.488 60.7848 3.408L60.8088 3.384L63.8808 0.816C64.0088 0.703999 64.1608 0.623999 64.3368 0.576C64.5128 0.512 64.7128 0.48 64.9368 0.48H71.3928C71.7608 0.48 72.0568 0.559999 72.2808 0.719999C72.5208 0.863999 72.6968 1.096 72.8088 1.416L74.8968 6.864C75.2328 7.728 75.4728 8.48 75.6168 9.12C75.7768 9.744 75.8568 10.304 75.8568 10.8V17.136C75.8568 17.344 75.8248 17.52 75.7608 17.664C75.7128 17.808 75.6328 17.928 75.5208 18.024L72.4008 20.616C72.3368 20.68 72.2328 20.736 72.0888 20.784C71.9608 20.832 71.8168 20.856 71.6568 20.856H68.0328C67.6328 20.856 67.3368 20.76 67.1448 20.568C66.9528 20.392 66.8568 20.12 66.8568 19.752V16.632H66.1848V17.136C66.1848 17.344 66.1528 17.52 66.0888 17.664C66.0408 17.808 65.9608 17.928 65.8488 18.024L62.7288 20.616ZM89.0347 3.12H83.8027V10.056H89.0347C90.0267 10.056 90.6907 9.816 91.0267 9.336C91.3627 8.856 91.5307 8.176 91.5307 7.296V5.616C91.5307 4.88 91.3227 4.28 90.9067 3.816C90.5067 3.352 89.8827 3.12 89.0347 3.12ZM86.3947 5.04H88.1947C88.6107 5.04 88.8907 5.152 89.0347 5.376C89.1787 5.584 89.2507 5.848 89.2507 6.168V6.984C89.2507 7.304 89.1787 7.576 89.0347 7.8C88.8907 8.008 88.6107 8.112 88.1947 8.112H86.3947V5.04ZM83.8027 15.84H83.5627V2.88H89.0347C89.9627 2.88 90.6507 3.144 91.0987 3.672C91.5467 4.184 91.7707 4.832 91.7707 5.616V7.272C91.7707 8.008 91.6747 8.616 91.4827 9.096C91.2907 9.56 90.9067 9.88 90.3307 10.056H90.5947C91.5707 10.056 92.2987 10.28 92.7787 10.728C93.2587 11.16 93.4987 11.792 93.4987 12.624V15.84H93.2587V12.624C93.2587 11.84 93.0427 11.256 92.6107 10.872C92.1787 10.472 91.5067 10.272 90.5947 10.272H83.8027V15.84ZM85.5307 18C85.8347 18 86.0507 17.936 86.1787 17.808C86.3227 17.664 86.3947 17.44 86.3947 17.136V12.432H89.7547C90.0907 12.432 90.3227 12.52 90.4507 12.696C90.5947 12.856 90.6667 13.112 90.6667 13.464V17.136C90.6667 17.44 90.7307 17.664 90.8587 17.808C91.0027 17.936 91.2267 18 91.5307 18H95.2507C95.5547 18 95.7707 17.936 95.8987 17.808C96.0427 17.664 96.1147 17.44 96.1147 17.136V12.048C96.1147 11.04 95.8427 10.232 95.2987 9.624C94.7707 9.016 94.0747 8.664 93.2107 8.568C93.7067 8.36 94.0507 8.024 94.2427 7.56C94.4507 7.08 94.5547 6.504 94.5547 5.832V4.728C94.5547 3.544 94.2107 2.584 93.5227 1.848C92.8507 1.096 91.6187 0.719999 89.8267 0.719999H81.8347C81.5307 0.719999 81.3067 0.791999 81.1627 0.935999C81.0347 1.064 80.9707 1.28 80.9707 1.584V17.136C80.9707 17.44 81.0347 17.664 81.1627 17.808C81.3067 17.936 81.5307 18 81.8347 18H85.5307ZM86.2987 18.024L83.1787 20.616C83.1147 20.68 83.0107 20.736 82.8667 20.784C82.7387 20.832 82.5947 20.856 82.4347 20.856H78.7387C78.3547 20.856 78.0747 20.768 77.8987 20.592C77.7227 20.416 77.6347 20.136 77.6347 19.752V4.2C77.6347 3.992 77.6587 3.816 77.7067 3.672C77.7707 3.528 77.8587 3.408 77.9707 3.312L81.0667 0.696C81.1467 0.631999 81.2507 0.583999 81.3787 0.551999C81.5227 0.503999 81.6747 0.48 81.8347 0.48H89.8267C91.7307 0.48 93.0347 0.88 93.7387 1.68C94.4427 2.464 94.7947 3.48 94.7947 4.728V5.832C94.7947 6.424 94.7227 6.944 94.5787 7.392C94.4347 7.824 94.2027 8.176 93.8827 8.448H93.8587C94.6107 8.656 95.2107 9.072 95.6587 9.696C96.1227 10.32 96.3547 11.104 96.3547 12.048V17.136C96.3547 17.344 96.3227 17.52 96.2587 17.664C96.2107 17.808 96.1307 17.928 96.0187 18.024L92.8987 20.616C92.8347 20.68 92.7307 20.736 92.5867 20.784C92.4587 20.832 92.3147 20.856 92.1547 20.856H88.4347C88.0507 20.856 87.7707 20.768 87.5947 20.592C87.4187 20.416 87.3307 20.136 87.3307 19.752V16.08C87.3307 15.824 87.2827 15.632 87.1867 15.504C87.0907 15.36 86.9147 15.288 86.6587 15.288H86.6347V17.136C86.6347 17.344 86.6027 17.52 86.5387 17.664C86.4907 17.808 86.4107 17.928 86.2987 18.024ZM119.106 20.856H111.546C109.45 20.856 107.898 20.312 106.89 19.224C105.898 18.136 105.402 16.728 105.402 15V8.232C105.402 7.352 105.53 6.592 105.786 5.952C106.042 5.312 106.418 4.776 106.914 4.344L110.01 1.728C110.506 1.312 111.138 0.999999 111.906 0.792C112.69 0.584 113.602 0.48 114.642 0.48H120.642C121.026 0.48 121.306 0.567999 121.482 0.743999C121.658 0.92 121.746 1.2 121.746 1.584V4.488C121.746 4.696 121.714 4.872 121.65 5.016C121.602 5.16 121.522 5.28 121.41 5.376L118.29 7.968C118.226 8.032 118.122 8.088 117.978 8.136C117.85 8.184 117.706 8.208 117.546 8.208H114.426V11.664C114.442 11.632 114.466 11.6 114.498 11.568C114.546 11.52 114.586 11.48 114.618 11.448L117.714 8.832C117.794 8.768 117.898 8.72 118.026 8.688C118.17 8.64 118.322 8.616 118.482 8.616H122.202C122.586 8.616 122.866 8.704 123.042 8.88C123.218 9.056 123.306 9.336 123.306 9.72V17.136C123.306 17.344 123.274 17.52 123.21 17.664C123.162 17.808 123.082 17.928 122.97 18.024L119.85 20.616C119.786 20.68 119.682 20.736 119.538 20.784C119.41 20.832 119.266 20.856 119.106 20.856ZM122.202 18C122.506 18 122.722 17.936 122.85 17.808C122.994 17.664 123.066 17.44 123.066 17.136V9.72C123.066 9.416 122.994 9.2 122.85 9.072C122.722 8.928 122.506 8.856 122.202 8.856H118.482C118.178 8.856 117.954 8.928 117.81 9.072C117.682 9.2 117.618 9.416 117.618 9.72V13.464H115.29C114.922 13.464 114.642 13.368 114.45 13.176C114.274 12.984 114.186 12.688 114.186 12.288V6.552C114.186 6.152 114.306 5.856 114.546 5.664C114.786 5.456 115.154 5.352 115.65 5.352H120.642C120.946 5.352 121.162 5.288 121.29 5.16C121.434 5.016 121.506 4.792 121.506 4.488V1.584C121.506 1.28 121.434 1.064 121.29 0.935999C121.162 0.791999 120.946 0.719999 120.642 0.719999H114.642C112.642 0.719999 111.154 1.12 110.178 1.92C109.218 2.72 108.738 3.952 108.738 5.616V13.104C108.738 14.768 109.218 16 110.178 16.8C111.154 17.6 112.642 18 114.642 18H122.202ZM115.674 15.84C114.794 15.84 114.074 15.784 113.514 15.672C112.954 15.56 112.514 15.384 112.194 15.144C111.874 14.888 111.65 14.568 111.522 14.184C111.41 13.784 111.354 13.304 111.354 12.744V6.024C111.354 4.888 111.61 4.08 112.122 3.6C112.634 3.12 113.658 2.88 115.194 2.88H119.346V3.12H115.194C113.786 3.12 112.834 3.344 112.338 3.792C111.842 4.224 111.594 4.968 111.594 6.024V12.744C111.594 13.784 111.866 14.52 112.41 14.952C112.97 15.384 114.058 15.6 115.674 15.6H120.21V11.016H120.45V15.84H115.674ZM130.809 10.728V11.472H140.169V10.728C140.169 10.296 140.129 9.896 140.049 9.528C139.985 9.16 139.897 8.816 139.785 8.496L138.129 4.584C137.953 4.168 137.769 3.824 137.577 3.552C137.385 3.264 137.065 3.12 136.617 3.12H134.265C133.785 3.12 133.449 3.264 133.257 3.552C133.065 3.824 132.889 4.16 132.729 4.56L131.193 8.496C131.081 8.816 130.985 9.16 130.905 9.528C130.841 9.896 130.809 10.296 130.809 10.728ZM134.649 5.76C134.713 5.616 134.777 5.512 134.841 5.448C134.921 5.384 135.009 5.352 135.105 5.352H135.705C135.801 5.352 135.881 5.384 135.945 5.448C136.025 5.512 136.097 5.616 136.161 5.76L137.289 9.408H133.521L134.649 5.76ZM140.169 15.84V11.712H130.809V15.84H130.569V10.728C130.569 10.28 130.601 9.872 130.665 9.504C130.745 9.12 130.849 8.752 130.977 8.4L132.513 4.464C132.689 4.016 132.889 3.64 133.113 3.336C133.337 3.032 133.721 2.88 134.265 2.88H136.617C137.145 2.88 137.513 3.032 137.721 3.336C137.945 3.64 138.153 4.024 138.345 4.488L140.001 8.4C140.129 8.752 140.225 9.12 140.289 9.504C140.369 9.872 140.409 10.28 140.409 10.728V15.84H140.169ZM133.281 17.136V13.776H137.529V17.136C137.529 17.44 137.601 17.664 137.745 17.808C137.905 17.936 138.145 18 138.465 18H142.089C142.393 18 142.609 17.936 142.737 17.808C142.881 17.664 142.953 17.44 142.953 17.136V10.8C142.953 10.32 142.873 9.768 142.713 9.144C142.569 8.52 142.337 7.792 142.017 6.96L139.929 1.512C139.833 1.24 139.681 1.04 139.473 0.912C139.281 0.783999 139.033 0.719999 138.729 0.719999H132.273C131.953 0.719999 131.689 0.783999 131.481 0.912C131.289 1.04 131.145 1.24 131.049 1.512L128.961 6.96C128.641 7.792 128.401 8.52 128.241 9.144C128.097 9.768 128.025 10.32 128.025 10.8V17.136C128.025 17.44 128.089 17.664 128.217 17.808C128.361 17.936 128.585 18 128.889 18H132.417C132.721 18 132.937 17.936 133.065 17.808C133.209 17.664 133.281 17.44 133.281 17.136ZM130.065 20.616C130.001 20.68 129.897 20.736 129.753 20.784C129.625 20.832 129.481 20.856 129.321 20.856H125.793C125.409 20.856 125.129 20.768 124.953 20.592C124.777 20.416 124.689 20.136 124.689 19.752V13.416C124.689 12.92 124.761 12.36 124.905 11.736C125.065 11.096 125.313 10.344 125.649 9.48L127.713 4.056C127.761 3.912 127.817 3.792 127.881 3.696C127.961 3.584 128.041 3.488 128.121 3.408L128.145 3.384L131.217 0.816C131.345 0.703999 131.497 0.623999 131.673 0.576C131.849 0.512 132.049 0.48 132.273 0.48H138.729C139.097 0.48 139.393 0.559999 139.617 0.719999C139.857 0.863999 140.033 1.096 140.145 1.416L142.233 6.864C142.569 7.728 142.809 8.48 142.953 9.12C143.113 9.744 143.193 10.304 143.193 10.8V17.136C143.193 17.344 143.161 17.52 143.097 17.664C143.049 17.808 142.969 17.928 142.857 18.024L139.737 20.616C139.673 20.68 139.569 20.736 139.425 20.784C139.297 20.832 139.153 20.856 138.993 20.856H135.369C134.969 20.856 134.673 20.76 134.481 20.568C134.289 20.392 134.193 20.12 134.193 19.752V16.632H133.521V17.136C133.521 17.344 133.489 17.52 133.425 17.664C133.377 17.808 133.297 17.928 133.185 18.024L130.065 20.616ZM145.643 20.856C145.259 20.856 144.979 20.768 144.803 20.592C144.627 20.416 144.539 20.136 144.539 19.752V16.944C144.539 16.736 144.563 16.56 144.611 16.416C144.675 16.272 144.763 16.152 144.875 16.056L147.275 14.04C146.427 13.784 145.755 13.352 145.259 12.744C144.779 12.12 144.539 11.232 144.539 10.08V7.56C144.539 6.84 144.659 6.2 144.899 5.64C145.139 5.08 145.483 4.608 145.931 4.224L149.051 1.608C149.483 1.256 150.019 0.983999 150.659 0.792C151.299 0.584 152.027 0.48 152.843 0.48H159.563C159.947 0.48 160.227 0.567999 160.403 0.743999C160.579 0.92 160.667 1.2 160.667 1.584V4.44C160.667 4.648 160.635 4.824 160.571 4.968C160.523 5.112 160.443 5.232 160.331 5.328L158.171 7.128C159.179 7.352 159.987 7.776 160.595 8.4C161.219 9.008 161.531 9.96 161.531 11.256V13.776C161.531 14.496 161.411 15.136 161.171 15.696C160.931 16.256 160.579 16.728 160.115 17.112L157.019 19.704C156.571 20.072 156.027 20.352 155.387 20.544C154.747 20.752 154.027 20.856 153.227 20.856H145.643ZM156.323 18C157.859 18 159.067 17.64 159.947 16.92C160.843 16.184 161.291 15.136 161.291 13.776V11.256C161.291 9.912 160.947 8.952 160.259 8.376C159.571 7.8 158.667 7.432 157.547 7.272L153.971 6.792C153.763 6.776 153.603 6.696 153.491 6.552C153.379 6.408 153.323 6.232 153.323 6.024C153.323 5.816 153.379 5.648 153.491 5.52C153.603 5.376 153.763 5.304 153.971 5.304H159.563C159.867 5.304 160.083 5.24 160.211 5.112C160.355 4.968 160.427 4.744 160.427 4.44V1.584C160.427 1.28 160.355 1.064 160.211 0.935999C160.083 0.791999 159.867 0.719999 159.563 0.719999H152.843C151.291 0.719999 150.075 1.088 149.195 1.824C148.315 2.544 147.875 3.584 147.875 4.944V7.464C147.875 8.808 148.211 9.768 148.883 10.344C149.571 10.92 150.475 11.288 151.595 11.448L155.195 11.952C155.403 11.968 155.555 12.04 155.651 12.168C155.763 12.296 155.819 12.496 155.819 12.768C155.819 12.96 155.763 13.128 155.651 13.272C155.555 13.4 155.403 13.464 155.195 13.464H148.739C148.435 13.464 148.211 13.536 148.067 13.68C147.939 13.808 147.875 14.024 147.875 14.328V17.136C147.875 17.44 147.939 17.664 148.067 17.808C148.211 17.936 148.435 18 148.739 18H156.323ZM158.267 2.88V3.12H152.939C152.267 3.12 151.731 3.304 151.331 3.672C150.931 4.04 150.731 4.504 150.731 5.064V7.032C150.731 7.592 150.843 7.984 151.067 8.208C151.291 8.432 151.587 8.576 151.955 8.64L157.019 9.672C157.499 9.768 157.891 9.976 158.195 10.296C158.515 10.616 158.675 11.192 158.675 12.024V13.416C158.675 14.12 158.435 14.704 157.955 15.168C157.475 15.616 156.827 15.84 156.011 15.84H150.035V15.6H156.011C156.747 15.6 157.331 15.4 157.763 15C158.211 14.584 158.435 14.056 158.435 13.416V12.024C158.435 11.272 158.299 10.76 158.027 10.488C157.771 10.2 157.419 10.008 156.971 9.912L151.907 8.88C151.491 8.8 151.147 8.64 150.875 8.4C150.619 8.144 150.491 7.688 150.491 7.032V5.064C150.491 4.424 150.715 3.904 151.163 3.504C151.611 3.088 152.203 2.88 152.939 2.88H158.267ZM173.915 20.856H163.691C163.307 20.856 163.027 20.768 162.851 20.592C162.675 20.416 162.587 20.136 162.587 19.752V16.896C162.587 16.688 162.611 16.512 162.659 16.368C162.723 16.224 162.811 16.104 162.923 16.008L165.827 13.56V8.208H163.691C163.307 8.208 163.027 8.12 162.851 7.944C162.675 7.768 162.587 7.488 162.587 7.104V4.2C162.587 3.992 162.611 3.816 162.659 3.672C162.723 3.528 162.811 3.408 162.923 3.312L166.019 0.696C166.099 0.631999 166.203 0.583999 166.331 0.551999C166.475 0.503999 166.627 0.48 166.787 0.48H177.011C177.395 0.48 177.675 0.567999 177.851 0.743999C178.027 0.92 178.115 1.2 178.115 1.584V4.488C178.115 4.696 178.083 4.872 178.019 5.016C177.971 5.16 177.891 5.28 177.779 5.376L174.923 7.776V13.176H177.011C177.395 13.176 177.675 13.264 177.851 13.44C178.027 13.616 178.115 13.896 178.115 14.28V17.136C178.115 17.344 178.083 17.52 178.019 17.664C177.971 17.808 177.891 17.928 177.779 18.024L174.659 20.616C174.595 20.68 174.491 20.736 174.347 20.784C174.219 20.832 174.075 20.856 173.915 20.856ZM166.787 18H177.011C177.315 18 177.531 17.936 177.659 17.808C177.803 17.664 177.875 17.44 177.875 17.136V14.28C177.875 13.976 177.803 13.76 177.659 13.632C177.531 13.488 177.315 13.416 177.011 13.416H174.683V5.352H177.011C177.315 5.352 177.531 5.288 177.659 5.16C177.803 5.016 177.875 4.792 177.875 4.488V1.584C177.875 1.28 177.803 1.064 177.659 0.935999C177.531 0.791999 177.315 0.719999 177.011 0.719999H166.787C166.483 0.719999 166.259 0.791999 166.115 0.935999C165.987 1.064 165.923 1.28 165.923 1.584V4.488C165.923 4.792 165.987 5.016 166.115 5.16C166.259 5.288 166.483 5.352 166.787 5.352H169.163V13.416H166.787C166.483 13.416 166.259 13.488 166.115 13.632C165.987 13.76 165.923 13.976 165.923 14.28V17.136C165.923 17.44 165.987 17.664 166.115 17.808C166.259 17.936 166.483 18 166.787 18ZM175.715 15.84H168.083V15.6H171.803V3.12H168.083V2.88H175.715V3.12H172.043V15.6H175.715V15.84ZM191.677 8.76C191.965 8.76 192.173 8.696 192.301 8.568C192.429 8.44 192.629 8.168 192.901 7.752L195.829 3.288C195.925 3.128 196.029 3.024 196.141 2.976C196.269 2.912 196.397 2.88 196.525 2.88H196.933C197.157 2.88 197.317 2.944 197.413 3.072C197.525 3.184 197.581 3.368 197.581 3.624V15.84H197.341V3.624C197.341 3.496 197.309 3.384 197.245 3.288C197.197 3.176 197.093 3.12 196.933 3.12H196.573C196.461 3.12 196.365 3.136 196.285 3.168C196.205 3.2 196.117 3.296 196.021 3.456L193.093 7.872C192.805 8.304 192.581 8.6 192.421 8.76C192.277 8.92 192.029 9 191.677 9C191.325 9 191.069 8.92 190.909 8.76C190.765 8.6 190.549 8.304 190.261 7.872L187.333 3.456C187.237 3.296 187.141 3.2 187.045 3.168C186.965 3.136 186.869 3.12 186.757 3.12H186.397C186.237 3.12 186.133 3.176 186.085 3.288C186.037 3.384 186.013 3.496 186.013 3.624V15.84H185.773V3.624C185.773 3.368 185.821 3.184 185.917 3.072C186.029 2.944 186.189 2.88 186.397 2.88H186.805C186.933 2.88 187.061 2.912 187.189 2.976C187.317 3.024 187.429 3.128 187.525 3.288L190.453 7.752C190.725 8.168 190.925 8.44 191.053 8.568C191.181 8.696 191.389 8.76 191.677 8.76ZM187.669 18C187.973 18 188.189 17.936 188.317 17.808C188.461 17.664 188.533 17.44 188.533 17.136V8.688L189.949 11.304C190.093 11.576 190.261 11.776 190.453 11.904C190.661 12.016 190.917 12.072 191.221 12.072H192.181C192.485 12.072 192.733 12.016 192.924 11.904C193.133 11.776 193.309 11.576 193.453 11.304L194.869 8.688V17.136C194.869 17.44 194.933 17.664 195.061 17.808C195.205 17.936 195.429 18 195.733 18H199.429C199.733 18 199.949 17.936 200.077 17.808C200.221 17.664 200.293 17.44 200.293 17.136V1.584C200.293 1.28 200.221 1.064 200.077 0.935999C199.949 0.791999 199.733 0.719999 199.429 0.719999H195.541C195.285 0.719999 195.069 0.775999 194.893 0.887999C194.733 0.999999 194.581 1.184 194.437 1.44L192.301 5.352C192.221 5.496 192.149 5.6 192.085 5.664C192.037 5.728 191.965 5.76 191.869 5.76H191.653C191.557 5.76 191.477 5.728 191.413 5.664C191.365 5.6 191.301 5.496 191.221 5.352L189.061 1.44C188.917 1.184 188.757 0.999999 188.581 0.887999C188.421 0.775999 188.213 0.719999 187.957 0.719999H184.093C183.789 0.719999 183.565 0.791999 183.421 0.935999C183.293 1.064 183.229 1.28 183.229 1.584V17.136C183.229 17.44 183.293 17.664 183.421 17.808C183.565 17.936 183.789 18 184.093 18H187.669ZM188.437 18.024L185.317 20.616C185.253 20.68 185.149 20.736 185.005 20.784C184.877 20.832 184.733 20.856 184.573 20.856H180.997C180.613 20.856 180.333 20.768 180.157 20.592C179.981 20.416 179.893 20.136 179.893 19.752V4.2C179.893 3.992 179.917 3.816 179.965 3.672C180.029 3.528 180.117 3.408 180.229 3.312L183.325 0.696C183.405 0.631999 183.509 0.583999 183.637 0.551999C183.781 0.503999 183.933 0.48 184.093 0.48H187.957C188.261 0.48 188.509 0.543999 188.701 0.671999C188.909 0.799999 189.101 1.016 189.277 1.32L190.909 4.32L191.125 3.936C191.189 3.824 191.253 3.72 191.317 3.624C191.397 3.512 191.477 3.424 191.557 3.36L194.653 0.767999C194.781 0.671999 194.909 0.599999 195.037 0.551999C195.181 0.503999 195.349 0.48 195.541 0.48H199.429C199.813 0.48 200.093 0.567999 200.269 0.743999C200.445 0.92 200.533 1.2 200.533 1.584V17.136C200.533 17.344 200.501 17.52 200.437 17.664C200.389 17.808 200.309 17.928 200.197 18.024L197.077 20.616C197.013 20.68 196.909 20.736 196.765 20.784C196.637 20.832 196.493 20.856 196.333 20.856H192.637C192.237 20.856 191.949 20.768 191.773 20.592C191.613 20.416 191.533 20.136 191.533 19.752V13.416L190.117 14.592C189.989 14.704 189.837 14.792 189.661 14.856C189.501 14.904 189.309 14.928 189.085 14.928H188.773V17.136C188.773 17.344 188.741 17.52 188.677 17.664C188.629 17.808 188.549 17.928 188.437 18.024ZM216.354 19.704C215.794 20.184 215.01 20.552 214.002 20.808C212.994 21.08 211.698 21.216 210.114 21.216C208.546 21.216 207.258 21.048 206.25 20.712C205.258 20.392 204.474 19.96 203.898 19.416C203.338 18.872 202.946 18.248 202.722 17.544C202.514 16.84 202.41 16.112 202.41 15.36V7.896C202.41 7.16 202.514 6.48 202.722 5.856C202.93 5.216 203.306 4.672 203.85 4.224L206.97 1.632C207.53 1.152 208.306 0.783999 209.298 0.527999C210.306 0.255999 211.61 0.119998 213.21 0.119998C214.778 0.119998 216.058 0.247999 217.05 0.503999C218.058 0.759999 218.842 1.12 219.402 1.584C219.978 2.032 220.37 2.576 220.578 3.216C220.786 3.84 220.89 4.528 220.89 5.28V13.464C220.89 14.2 220.786 14.88 220.578 15.504C220.37 16.128 219.994 16.664 219.45 17.112L216.354 19.704ZM220.65 13.464V5.28C220.65 4.544 220.538 3.88 220.314 3.288C220.106 2.68 219.722 2.16 219.162 1.728C218.618 1.296 217.858 0.959999 216.882 0.719999C215.922 0.48 214.698 0.36 213.21 0.36C211.722 0.36 210.49 0.48 209.514 0.719999C208.538 0.959999 207.77 1.296 207.21 1.728C206.666 2.16 206.282 2.68 206.058 3.288C205.85 3.88 205.746 4.544 205.746 5.28V13.464C205.746 14.2 205.85 14.872 206.058 15.48C206.282 16.072 206.666 16.584 207.21 17.016C207.77 17.432 208.538 17.76 209.514 18C210.49 18.24 211.722 18.36 213.21 18.36C214.698 18.36 215.922 18.24 216.882 18C217.858 17.76 218.618 17.432 219.162 17.016C219.722 16.584 220.106 16.072 220.314 15.48C220.538 14.872 220.65 14.2 220.65 13.464ZM218.034 12.912C218.034 13.872 217.69 14.656 217.002 15.264C216.314 15.856 215.034 16.152 213.162 16.152C211.29 16.152 210.018 15.856 209.346 15.264C208.674 14.656 208.338 13.872 208.338 12.912V5.832C208.338 4.872 208.674 4.096 209.346 3.504C210.018 2.896 211.29 2.592 213.162 2.592C215.034 2.592 216.314 2.896 217.002 3.504C217.69 4.096 218.034 4.872 218.034 5.832V12.912ZM208.578 12.912C208.578 13.808 208.898 14.536 209.538 15.096C210.178 15.64 211.386 15.912 213.162 15.912C214.938 15.912 216.154 15.64 216.81 15.096C217.466 14.536 217.794 13.808 217.794 12.912V5.832C217.794 4.936 217.466 4.216 216.81 3.672C216.154 3.112 214.938 2.832 213.162 2.832C211.386 2.832 210.178 3.112 209.538 3.672C208.898 4.216 208.578 4.936 208.578 5.832V12.912ZM211.194 12.6V6.144C211.194 5.84 211.314 5.584 211.554 5.376C211.794 5.152 212.346 5.04 213.21 5.04C214.074 5.04 214.626 5.152 214.866 5.376C215.106 5.584 215.226 5.84 215.226 6.144V12.6C215.226 12.92 215.106 13.192 214.866 13.416C214.626 13.624 214.074 13.728 213.21 13.728C212.346 13.728 211.794 13.624 211.554 13.416C211.314 13.192 211.194 12.92 211.194 12.6ZM211.434 12.6C211.434 12.76 211.466 12.904 211.53 13.032C211.594 13.144 211.714 13.24 211.89 13.32V8.76C211.89 8.6 211.858 8.464 211.794 8.352C211.73 8.224 211.61 8.128 211.434 8.064V12.6ZM226.984 20.856C226.616 20.856 226.32 20.784 226.096 20.64C225.872 20.512 225.688 20.272 225.544 19.92L223.192 14.04C223.048 13.672 222.92 13.36 222.808 13.104C222.712 12.832 222.632 12.576 222.568 12.336C222.504 12.08 222.456 11.816 222.424 11.544C222.408 11.256 222.4 10.92 222.4 10.536V4.2C222.4 3.992 222.424 3.816 222.472 3.672C222.536 3.528 222.624 3.408 222.736 3.312L225.832 0.696C225.912 0.631999 226.016 0.583999 226.144 0.551999C226.288 0.503999 226.44 0.48 226.6 0.48H230.416C230.8 0.48 231.088 0.575999 231.28 0.767999C231.488 0.943999 231.592 1.216 231.592 1.584V8.208C231.592 8.368 231.608 8.52 231.64 8.664C231.672 8.808 231.712 8.96 231.76 9.12L231.832 9.288V4.2C231.832 3.992 231.856 3.816 231.904 3.672C231.968 3.528 232.056 3.408 232.168 3.312L235.264 0.696C235.344 0.631999 235.448 0.583999 235.576 0.551999C235.72 0.503999 235.872 0.48 236.032 0.48H239.8C240.2 0.48 240.48 0.567999 240.64 0.743999C240.816 0.92 240.904 1.2 240.904 1.584V7.92C240.904 8.304 240.888 8.64 240.856 8.928C240.84 9.2 240.8 9.464 240.736 9.72C240.672 9.96 240.584 10.216 240.472 10.488C240.376 10.744 240.256 11.056 240.112 11.424L237.76 17.304C237.712 17.448 237.648 17.576 237.568 17.688C237.488 17.8 237.408 17.888 237.328 17.952L234.232 20.52C234.104 20.632 233.952 20.712 233.776 20.76C233.616 20.824 233.432 20.856 233.224 20.856H226.984ZM236.32 18C236.624 18 236.872 17.944 237.064 17.832C237.272 17.72 237.432 17.512 237.544 17.208L239.896 11.328C240.04 10.976 240.16 10.672 240.256 10.416C240.352 10.144 240.432 9.888 240.496 9.648C240.56 9.408 240.6 9.16 240.616 8.904C240.648 8.632 240.664 8.304 240.664 7.92V1.584C240.664 1.28 240.592 1.064 240.448 0.935999C240.32 0.791999 240.104 0.719999 239.8 0.719999H236.032C235.728 0.719999 235.504 0.791999 235.36 0.935999C235.232 1.064 235.168 1.28 235.168 1.584V8.184C235.168 8.344 235.152 8.504 235.12 8.664C235.088 8.824 235.04 8.992 234.976 9.168L233.848 12.552C233.8 12.712 233.744 12.824 233.68 12.888C233.616 12.936 233.52 12.96 233.392 12.96H233.128C233 12.96 232.904 12.936 232.84 12.888C232.776 12.824 232.72 12.712 232.672 12.552L231.544 9.192C231.48 9.016 231.432 8.848 231.4 8.688C231.368 8.528 231.352 8.368 231.352 8.208V1.584C231.352 1.28 231.272 1.064 231.112 0.935999C230.952 0.791999 230.72 0.719999 230.416 0.719999H226.6C226.296 0.719999 226.072 0.791999 225.928 0.935999C225.8 1.064 225.736 1.28 225.736 1.584V7.92C225.736 8.304 225.744 8.632 225.76 8.904C225.792 9.16 225.84 9.408 225.904 9.648C225.968 9.888 226.048 10.144 226.144 10.416C226.24 10.672 226.36 10.976 226.504 11.328L228.856 17.208C228.968 17.512 229.12 17.72 229.312 17.832C229.52 17.944 229.776 18 230.08 18H236.32ZM228.448 2.88H228.688V8.064C228.688 8.48 228.72 8.88 228.784 9.264C228.848 9.632 228.944 9.976 229.072 10.296L230.656 14.136C230.816 14.552 230.992 14.904 231.184 15.192C231.392 15.464 231.72 15.6 232.168 15.6H234.28C234.728 15.6 235.048 15.464 235.24 15.192C235.448 14.904 235.632 14.552 235.792 14.136L237.376 10.296C237.504 9.976 237.6 9.632 237.664 9.264C237.728 8.88 237.76 8.48 237.76 8.064V2.88H238V8.064C238 8.512 237.968 8.928 237.904 9.312C237.856 9.68 237.76 10.04 237.616 10.392L236.032 14.232C235.84 14.696 235.624 15.08 235.384 15.384C235.144 15.688 234.776 15.84 234.28 15.84H232.168C231.672 15.84 231.304 15.688 231.064 15.384C230.824 15.08 230.608 14.696 230.416 14.232L228.832 10.392C228.688 10.04 228.584 9.68 228.52 9.312C228.472 8.928 228.448 8.512 228.448 8.064V2.88Z" fill="black"/>
</svg>
