<svg width="243" height="27" viewBox="0 0 243 27" fill="none" xmlns="http://www.w3.org/2000/svg">
<path d="M14.4 25.856H2.184C1.8 25.856 1.52 25.768 1.344 25.592C1.168 25.416 1.08 25.136 1.08 24.752V9.2C1.08 8.992 1.104 8.816 1.152 8.672C1.216 8.528 1.304 8.408 1.416 8.312L4.512 5.696C4.592 5.632 4.696 5.584 4.824 5.552C4.968 5.504 5.12 5.48 5.28 5.48H9C9.384 5.48 9.664 5.568 9.84 5.744C10.016 5.92 10.104 6.2 10.104 6.584V16.352L10.152 16.304L13.248 13.688C13.328 13.624 13.432 13.576 13.56 13.544C13.704 13.496 13.856 13.472 14.016 13.472H17.496C17.88 13.472 18.16 13.56 18.336 13.736C18.512 13.912 18.6 14.192 18.6 14.576V22.136C18.6 22.344 18.568 22.52 18.504 22.664C18.456 22.808 18.376 22.928 18.264 23.024L15.144 25.616C15.08 25.68 14.976 25.736 14.832 25.784C14.704 25.832 14.56 25.856 14.4 25.856ZM17.496 23C17.8 23 18.016 22.936 18.144 22.808C18.288 22.664 18.36 22.44 18.36 22.136V14.576C18.36 14.272 18.288 14.056 18.144 13.928C18.016 13.784 17.8 13.712 17.496 13.712H14.016C13.712 13.712 13.488 13.784 13.344 13.928C13.216 14.056 13.152 14.272 13.152 14.576V18.464H9.864V6.584C9.864 6.28 9.792 6.064 9.648 5.936C9.52 5.792 9.304 5.72 9 5.72H5.28C4.976 5.72 4.752 5.792 4.608 5.936C4.48 6.064 4.416 6.28 4.416 6.584V22.136C4.416 22.44 4.48 22.664 4.608 22.808C4.752 22.936 4.976 23 5.28 23H17.496ZM7.032 20.84V7.88H7.272V20.6H15.624V15.872H15.864V20.84H7.032ZM32.3981 25.856H21.2621C20.8781 25.856 20.5981 25.768 20.4221 25.592C20.2461 25.416 20.1581 25.136 20.1581 24.752V9.2C20.1581 8.992 20.1821 8.816 20.2301 8.672C20.2941 8.528 20.3821 8.408 20.4941 8.312L23.5901 5.696C23.6701 5.632 23.7741 5.584 23.9021 5.552C24.0461 5.504 24.1981 5.48 24.3581 5.48H35.4941C35.8781 5.48 36.1581 5.568 36.3341 5.744C36.5101 5.92 36.5981 6.2 36.5981 6.584V9.392C36.5981 9.6 36.5661 9.776 36.5021 9.92C36.4541 10.064 36.3741 10.184 36.2621 10.28L34.1981 11.984C34.3581 12.064 34.4701 12.184 34.5341 12.344C34.6141 12.504 34.6541 12.712 34.6541 12.968V15.536C34.6541 15.744 34.6221 15.92 34.5581 16.064C34.5101 16.208 34.4301 16.328 34.3181 16.424L32.1821 18.224H35.4941C35.8781 18.224 36.1581 18.312 36.3341 18.488C36.5101 18.664 36.5981 18.944 36.5981 19.328V22.136C36.5981 22.344 36.5661 22.52 36.5021 22.664C36.4541 22.808 36.3741 22.928 36.2621 23.024L33.1421 25.616C33.0781 25.68 32.9741 25.736 32.8301 25.784C32.7021 25.832 32.5581 25.856 32.3981 25.856ZM35.4941 23C35.7981 23 36.0141 22.936 36.1421 22.808C36.2861 22.664 36.3581 22.44 36.3581 22.136V19.328C36.3581 19.024 36.2861 18.808 36.1421 18.68C36.0141 18.536 35.7981 18.464 35.4941 18.464H28.8701V16.4H33.5501C33.8541 16.4 34.0701 16.336 34.1981 16.208C34.3421 16.064 34.4141 15.84 34.4141 15.536V12.968C34.4141 12.664 34.3421 12.448 34.1981 12.32C34.0701 12.176 33.8541 12.104 33.5501 12.104H28.8701V10.256H35.4941C35.7981 10.256 36.0141 10.192 36.1421 10.064C36.2861 9.92 36.3581 9.696 36.3581 9.392V6.584C36.3581 6.28 36.2861 6.064 36.1421 5.936C36.0141 5.792 35.7981 5.72 35.4941 5.72H24.3581C24.0541 5.72 23.8301 5.792 23.6861 5.936C23.5581 6.064 23.4941 6.28 23.4941 6.584V22.136C23.4941 22.44 23.5581 22.664 23.6861 22.808C23.8301 22.936 24.0541 23 24.3581 23H35.4941ZM34.1981 20.6V20.84H26.1101V7.88H34.1981V8.12H26.3501V14.144H32.2541V14.384H26.3501V20.6H34.1981ZM44.7559 8.072L53.5879 18.008V7.88H53.8279V20.84H53.5879V18.368L44.5159 8.192C44.4999 8.176 44.4759 8.16 44.4439 8.144C44.4279 8.128 44.4119 8.12 44.3959 8.12C44.3799 8.12 44.3639 8.128 44.3479 8.144C44.3479 8.16 44.3479 8.176 44.3479 8.192V20.84H44.1079V8.144C44.1079 8.048 44.1399 7.976 44.2039 7.928C44.2679 7.88 44.3319 7.856 44.3959 7.856C44.4599 7.856 44.5159 7.872 44.5639 7.904C44.6119 7.936 44.6759 7.992 44.7559 8.072ZM46.0519 23C46.3559 23 46.5719 22.936 46.6999 22.808C46.8439 22.664 46.9159 22.44 46.9159 22.136V14.216L51.0199 19.184V22.136C51.0199 22.44 51.0839 22.664 51.2119 22.808C51.3559 22.936 51.5799 23 51.8839 23H55.4839C55.7879 23 56.0039 22.936 56.1319 22.808C56.2759 22.664 56.3479 22.44 56.3479 22.136V6.584C56.3479 6.28 56.2759 6.064 56.1319 5.936C56.0039 5.792 55.7879 5.72 55.4839 5.72H51.8839C51.5799 5.72 51.3559 5.792 51.2119 5.936C51.0839 6.064 51.0199 6.28 51.0199 6.584V11.696L46.3639 6.368C46.1559 6.128 45.9399 5.96 45.7159 5.864C45.5079 5.768 45.2519 5.72 44.9479 5.72H42.4519C42.1479 5.72 41.9239 5.792 41.7799 5.936C41.6519 6.064 41.5879 6.28 41.5879 6.584V22.136C41.5879 22.44 41.6519 22.664 41.7799 22.808C41.9239 22.936 42.1479 23 42.4519 23H46.0519ZM46.8199 23.024L43.6999 25.616C43.6359 25.68 43.5319 25.736 43.3879 25.784C43.2599 25.832 43.1159 25.856 42.9559 25.856H39.3559C38.9719 25.856 38.6919 25.768 38.5159 25.592C38.3399 25.416 38.2519 25.136 38.2519 24.752V9.2C38.2519 8.992 38.2759 8.816 38.3239 8.672C38.3879 8.528 38.4759 8.408 38.5879 8.312L41.6839 5.696C41.7639 5.632 41.8679 5.584 41.9959 5.552C42.1399 5.504 42.2919 5.48 42.4519 5.48H44.9479C45.2999 5.48 45.5959 5.536 45.8359 5.648C46.0759 5.76 46.3159 5.944 46.5559 6.2L48.2119 8.12L51.1159 5.696C51.1959 5.632 51.2999 5.584 51.4279 5.552C51.5719 5.504 51.7239 5.48 51.8839 5.48H55.4839C55.8679 5.48 56.1479 5.568 56.3239 5.744C56.4999 5.92 56.5879 6.2 56.5879 6.584V22.136C56.5879 22.344 56.5559 22.52 56.4919 22.664C56.4439 22.808 56.3639 22.928 56.2519 23.024L53.1319 25.616C53.0679 25.68 52.9639 25.736 52.8199 25.784C52.6919 25.832 52.5479 25.856 52.3879 25.856H48.7879C48.4039 25.856 48.1239 25.768 47.9479 25.592C47.7719 25.416 47.6839 25.136 47.6839 24.752V21.896L47.1559 21.248V22.136C47.1559 22.344 47.1239 22.52 47.0599 22.664C47.0119 22.808 46.9319 22.928 46.8199 23.024ZM64.4728 15.728V16.472H73.8328V15.728C73.8328 15.296 73.7928 14.896 73.7128 14.528C73.6488 14.16 73.5608 13.816 73.4488 13.496L71.7928 9.584C71.6168 9.168 71.4328 8.824 71.2408 8.552C71.0488 8.264 70.7288 8.12 70.2808 8.12H67.9288C67.4488 8.12 67.1128 8.264 66.9208 8.552C66.7288 8.824 66.5528 9.16 66.3928 9.56L64.8568 13.496C64.7448 13.816 64.6488 14.16 64.5688 14.528C64.5048 14.896 64.4728 15.296 64.4728 15.728ZM68.3128 10.76C68.3768 10.616 68.4408 10.512 68.5048 10.448C68.5848 10.384 68.6728 10.352 68.7688 10.352H69.3688C69.4648 10.352 69.5448 10.384 69.6088 10.448C69.6888 10.512 69.7608 10.616 69.8248 10.76L70.9528 14.408H67.1848L68.3128 10.76ZM73.8328 20.84V16.712H64.4728V20.84H64.2328V15.728C64.2328 15.28 64.2648 14.872 64.3288 14.504C64.4088 14.12 64.5128 13.752 64.6408 13.4L66.1768 9.464C66.3528 9.016 66.5528 8.64 66.7768 8.336C67.0008 8.032 67.3848 7.88 67.9288 7.88H70.2808C70.8088 7.88 71.1768 8.032 71.3848 8.336C71.6088 8.64 71.8168 9.024 72.0088 9.488L73.6648 13.4C73.7928 13.752 73.8888 14.12 73.9528 14.504C74.0328 14.872 74.0728 15.28 74.0728 15.728V20.84H73.8328ZM66.9448 22.136V18.776H71.1928V22.136C71.1928 22.44 71.2648 22.664 71.4088 22.808C71.5688 22.936 71.8088 23 72.1288 23H75.7528C76.0568 23 76.2728 22.936 76.4008 22.808C76.5448 22.664 76.6168 22.44 76.6168 22.136V15.8C76.6168 15.32 76.5368 14.768 76.3768 14.144C76.2328 13.52 76.0008 12.792 75.6808 11.96L73.5928 6.512C73.4968 6.24 73.3448 6.04 73.1368 5.912C72.9448 5.784 72.6968 5.72 72.3928 5.72H65.9368C65.6168 5.72 65.3528 5.784 65.1448 5.912C64.9528 6.04 64.8088 6.24 64.7128 6.512L62.6248 11.96C62.3048 12.792 62.0648 13.52 61.9048 14.144C61.7608 14.768 61.6888 15.32 61.6888 15.8V22.136C61.6888 22.44 61.7528 22.664 61.8808 22.808C62.0248 22.936 62.2488 23 62.5528 23H66.0808C66.3848 23 66.6008 22.936 66.7288 22.808C66.8728 22.664 66.9448 22.44 66.9448 22.136ZM63.7288 25.616C63.6648 25.68 63.5608 25.736 63.4168 25.784C63.2888 25.832 63.1448 25.856 62.9848 25.856H59.4568C59.0728 25.856 58.7928 25.768 58.6168 25.592C58.4408 25.416 58.3528 25.136 58.3528 24.752V18.416C58.3528 17.92 58.4248 17.36 58.5688 16.736C58.7288 16.096 58.9768 15.344 59.3128 14.48L61.3768 9.056C61.4248 8.912 61.4808 8.792 61.5448 8.696C61.6248 8.584 61.7048 8.488 61.7848 8.408L61.8088 8.384L64.8808 5.816C65.0088 5.704 65.1608 5.624 65.3368 5.576C65.5128 5.512 65.7128 5.48 65.9368 5.48H72.3928C72.7608 5.48 73.0568 5.56 73.2808 5.72C73.5208 5.864 73.6968 6.096 73.8088 6.416L75.8968 11.864C76.2328 12.728 76.4728 13.48 76.6168 14.12C76.7768 14.744 76.8568 15.304 76.8568 15.8V22.136C76.8568 22.344 76.8248 22.52 76.7608 22.664C76.7128 22.808 76.6328 22.928 76.5208 23.024L73.4008 25.616C73.3368 25.68 73.2328 25.736 73.0888 25.784C72.9608 25.832 72.8168 25.856 72.6568 25.856H69.0328C68.6328 25.856 68.3368 25.76 68.1448 25.568C67.9528 25.392 67.8568 25.12 67.8568 24.752V21.632H67.1848V22.136C67.1848 22.344 67.1528 22.52 67.0888 22.664C67.0408 22.808 66.9608 22.928 66.8488 23.024L63.7288 25.616ZM90.0347 8.12H84.8027V15.056H90.0347C91.0267 15.056 91.6907 14.816 92.0267 14.336C92.3627 13.856 92.5307 13.176 92.5307 12.296V10.616C92.5307 9.88 92.3227 9.28 91.9067 8.816C91.5067 8.352 90.8827 8.12 90.0347 8.12ZM87.3947 10.04H89.1947C89.6107 10.04 89.8907 10.152 90.0347 10.376C90.1787 10.584 90.2507 10.848 90.2507 11.168V11.984C90.2507 12.304 90.1787 12.576 90.0347 12.8C89.8907 13.008 89.6107 13.112 89.1947 13.112H87.3947V10.04ZM84.8027 20.84H84.5627V7.88H90.0347C90.9627 7.88 91.6507 8.144 92.0987 8.672C92.5467 9.184 92.7707 9.832 92.7707 10.616V12.272C92.7707 13.008 92.6747 13.616 92.4827 14.096C92.2907 14.56 91.9067 14.88 91.3307 15.056H91.5947C92.5707 15.056 93.2987 15.28 93.7787 15.728C94.2587 16.16 94.4987 16.792 94.4987 17.624V20.84H94.2587V17.624C94.2587 16.84 94.0427 16.256 93.6107 15.872C93.1787 15.472 92.5067 15.272 91.5947 15.272H84.8027V20.84ZM86.5307 23C86.8347 23 87.0507 22.936 87.1787 22.808C87.3227 22.664 87.3947 22.44 87.3947 22.136V17.432H90.7547C91.0907 17.432 91.3227 17.52 91.4507 17.696C91.5947 17.856 91.6667 18.112 91.6667 18.464V22.136C91.6667 22.44 91.7307 22.664 91.8587 22.808C92.0027 22.936 92.2267 23 92.5307 23H96.2507C96.5547 23 96.7707 22.936 96.8987 22.808C97.0427 22.664 97.1147 22.44 97.1147 22.136V17.048C97.1147 16.04 96.8427 15.232 96.2987 14.624C95.7707 14.016 95.0747 13.664 94.2107 13.568C94.7067 13.36 95.0507 13.024 95.2427 12.56C95.4507 12.08 95.5547 11.504 95.5547 10.832V9.728C95.5547 8.544 95.2107 7.584 94.5227 6.848C93.8507 6.096 92.6187 5.72 90.8267 5.72H82.8347C82.5307 5.72 82.3067 5.792 82.1627 5.936C82.0347 6.064 81.9707 6.28 81.9707 6.584V22.136C81.9707 22.44 82.0347 22.664 82.1627 22.808C82.3067 22.936 82.5307 23 82.8347 23H86.5307ZM87.2987 23.024L84.1787 25.616C84.1147 25.68 84.0107 25.736 83.8667 25.784C83.7387 25.832 83.5947 25.856 83.4347 25.856H79.7387C79.3547 25.856 79.0747 25.768 78.8987 25.592C78.7227 25.416 78.6347 25.136 78.6347 24.752V9.2C78.6347 8.992 78.6587 8.816 78.7067 8.672C78.7707 8.528 78.8587 8.408 78.9707 8.312L82.0667 5.696C82.1467 5.632 82.2507 5.584 82.3787 5.552C82.5227 5.504 82.6747 5.48 82.8347 5.48H90.8267C92.7307 5.48 94.0347 5.88 94.7387 6.68C95.4427 7.464 95.7947 8.48 95.7947 9.728V10.832C95.7947 11.424 95.7227 11.944 95.5787 12.392C95.4347 12.824 95.2027 13.176 94.8827 13.448H94.8587C95.6107 13.656 96.2107 14.072 96.6587 14.696C97.1227 15.32 97.3547 16.104 97.3547 17.048V22.136C97.3547 22.344 97.3227 22.52 97.2587 22.664C97.2107 22.808 97.1307 22.928 97.0187 23.024L93.8987 25.616C93.8347 25.68 93.7307 25.736 93.5867 25.784C93.4587 25.832 93.3147 25.856 93.1547 25.856H89.4347C89.0507 25.856 88.7707 25.768 88.5947 25.592C88.4187 25.416 88.3307 25.136 88.3307 24.752V21.08C88.3307 20.824 88.2827 20.632 88.1867 20.504C88.0907 20.36 87.9147 20.288 87.6587 20.288H87.6347V22.136C87.6347 22.344 87.6027 22.52 87.5387 22.664C87.4907 22.808 87.4107 22.928 87.2987 23.024ZM120.106 25.856H112.546C110.45 25.856 108.898 25.312 107.89 24.224C106.898 23.136 106.402 21.728 106.402 20V13.232C106.402 12.352 106.53 11.592 106.786 10.952C107.042 10.312 107.418 9.776 107.914 9.344L111.01 6.728C111.506 6.312 112.138 6 112.906 5.792C113.69 5.584 114.602 5.48 115.642 5.48H121.642C122.026 5.48 122.306 5.568 122.482 5.744C122.658 5.92 122.746 6.2 122.746 6.584V9.488C122.746 9.696 122.714 9.872 122.65 10.016C122.602 10.16 122.522 10.28 122.41 10.376L119.29 12.968C119.226 13.032 119.122 13.088 118.978 13.136C118.85 13.184 118.706 13.208 118.546 13.208H115.426V16.664C115.442 16.632 115.466 16.6 115.498 16.568C115.546 16.52 115.586 16.48 115.618 16.448L118.714 13.832C118.794 13.768 118.898 13.72 119.026 13.688C119.17 13.64 119.322 13.616 119.482 13.616H123.202C123.586 13.616 123.866 13.704 124.042 13.88C124.218 14.056 124.306 14.336 124.306 14.72V22.136C124.306 22.344 124.274 22.52 124.21 22.664C124.162 22.808 124.082 22.928 123.97 23.024L120.85 25.616C120.786 25.68 120.682 25.736 120.538 25.784C120.41 25.832 120.266 25.856 120.106 25.856ZM123.202 23C123.506 23 123.722 22.936 123.85 22.808C123.994 22.664 124.066 22.44 124.066 22.136V14.72C124.066 14.416 123.994 14.2 123.85 14.072C123.722 13.928 123.506 13.856 123.202 13.856H119.482C119.178 13.856 118.954 13.928 118.81 14.072C118.682 14.2 118.618 14.416 118.618 14.72V18.464H116.29C115.922 18.464 115.642 18.368 115.45 18.176C115.274 17.984 115.186 17.688 115.186 17.288V11.552C115.186 11.152 115.306 10.856 115.546 10.664C115.786 10.456 116.154 10.352 116.65 10.352H121.642C121.946 10.352 122.162 10.288 122.29 10.16C122.434 10.016 122.506 9.792 122.506 9.488V6.584C122.506 6.28 122.434 6.064 122.29 5.936C122.162 5.792 121.946 5.72 121.642 5.72H115.642C113.642 5.72 112.154 6.12 111.178 6.92C110.218 7.72 109.738 8.952 109.738 10.616V18.104C109.738 19.768 110.218 21 111.178 21.8C112.154 22.6 113.642 23 115.642 23H123.202ZM116.674 20.84C115.794 20.84 115.074 20.784 114.514 20.672C113.954 20.56 113.514 20.384 113.194 20.144C112.874 19.888 112.65 19.568 112.522 19.184C112.41 18.784 112.354 18.304 112.354 17.744V11.024C112.354 9.888 112.61 9.08 113.122 8.6C113.634 8.12 114.658 7.88 116.194 7.88H120.346V8.12H116.194C114.786 8.12 113.834 8.344 113.338 8.792C112.842 9.224 112.594 9.968 112.594 11.024V17.744C112.594 18.784 112.866 19.52 113.41 19.952C113.97 20.384 115.058 20.6 116.674 20.6H121.21V16.016H121.45V20.84H116.674ZM131.809 15.728V16.472H141.169V15.728C141.169 15.296 141.129 14.896 141.049 14.528C140.985 14.16 140.897 13.816 140.785 13.496L139.129 9.584C138.953 9.168 138.769 8.824 138.577 8.552C138.385 8.264 138.065 8.12 137.617 8.12H135.265C134.785 8.12 134.449 8.264 134.257 8.552C134.065 8.824 133.889 9.16 133.729 9.56L132.193 13.496C132.081 13.816 131.985 14.16 131.905 14.528C131.841 14.896 131.809 15.296 131.809 15.728ZM135.649 10.76C135.713 10.616 135.777 10.512 135.841 10.448C135.921 10.384 136.009 10.352 136.105 10.352H136.705C136.801 10.352 136.881 10.384 136.945 10.448C137.025 10.512 137.097 10.616 137.161 10.76L138.289 14.408H134.521L135.649 10.76ZM141.169 20.84V16.712H131.809V20.84H131.569V15.728C131.569 15.28 131.601 14.872 131.665 14.504C131.745 14.12 131.849 13.752 131.977 13.4L133.513 9.464C133.689 9.016 133.889 8.64 134.113 8.336C134.337 8.032 134.721 7.88 135.265 7.88H137.617C138.145 7.88 138.513 8.032 138.721 8.336C138.945 8.64 139.153 9.024 139.345 9.488L141.001 13.4C141.129 13.752 141.225 14.12 141.289 14.504C141.369 14.872 141.409 15.28 141.409 15.728V20.84H141.169ZM134.281 22.136V18.776H138.529V22.136C138.529 22.44 138.601 22.664 138.745 22.808C138.905 22.936 139.145 23 139.465 23H143.089C143.393 23 143.609 22.936 143.737 22.808C143.881 22.664 143.953 22.44 143.953 22.136V15.8C143.953 15.32 143.873 14.768 143.713 14.144C143.569 13.52 143.337 12.792 143.017 11.96L140.929 6.512C140.833 6.24 140.681 6.04 140.473 5.912C140.281 5.784 140.033 5.72 139.729 5.72H133.273C132.953 5.72 132.689 5.784 132.481 5.912C132.289 6.04 132.145 6.24 132.049 6.512L129.961 11.96C129.641 12.792 129.401 13.52 129.241 14.144C129.097 14.768 129.025 15.32 129.025 15.8V22.136C129.025 22.44 129.089 22.664 129.217 22.808C129.361 22.936 129.585 23 129.889 23H133.417C133.721 23 133.937 22.936 134.065 22.808C134.209 22.664 134.281 22.44 134.281 22.136ZM131.065 25.616C131.001 25.68 130.897 25.736 130.753 25.784C130.625 25.832 130.481 25.856 130.321 25.856H126.793C126.409 25.856 126.129 25.768 125.953 25.592C125.777 25.416 125.689 25.136 125.689 24.752V18.416C125.689 17.92 125.761 17.36 125.905 16.736C126.065 16.096 126.313 15.344 126.649 14.48L128.713 9.056C128.761 8.912 128.817 8.792 128.881 8.696C128.961 8.584 129.041 8.488 129.121 8.408L129.145 8.384L132.217 5.816C132.345 5.704 132.497 5.624 132.673 5.576C132.849 5.512 133.049 5.48 133.273 5.48H139.729C140.097 5.48 140.393 5.56 140.617 5.72C140.857 5.864 141.033 6.096 141.145 6.416L143.233 11.864C143.569 12.728 143.809 13.48 143.953 14.12C144.113 14.744 144.193 15.304 144.193 15.8V22.136C144.193 22.344 144.161 22.52 144.097 22.664C144.049 22.808 143.969 22.928 143.857 23.024L140.737 25.616C140.673 25.68 140.569 25.736 140.425 25.784C140.297 25.832 140.153 25.856 139.993 25.856H136.369C135.969 25.856 135.673 25.76 135.481 25.568C135.289 25.392 135.193 25.12 135.193 24.752V21.632H134.521V22.136C134.521 22.344 134.489 22.52 134.425 22.664C134.377 22.808 134.297 22.928 134.185 23.024L131.065 25.616ZM146.643 25.856C146.259 25.856 145.979 25.768 145.803 25.592C145.627 25.416 145.539 25.136 145.539 24.752V21.944C145.539 21.736 145.563 21.56 145.611 21.416C145.675 21.272 145.763 21.152 145.875 21.056L148.275 19.04C147.427 18.784 146.755 18.352 146.259 17.744C145.779 17.12 145.539 16.232 145.539 15.08V12.56C145.539 11.84 145.659 11.2 145.899 10.64C146.139 10.08 146.483 9.608 146.931 9.224L150.051 6.608C150.483 6.256 151.019 5.984 151.659 5.792C152.299 5.584 153.027 5.48 153.843 5.48H160.563C160.947 5.48 161.227 5.568 161.403 5.744C161.579 5.92 161.667 6.2 161.667 6.584V9.44C161.667 9.648 161.635 9.824 161.571 9.968C161.523 10.112 161.443 10.232 161.331 10.328L159.171 12.128C160.179 12.352 160.987 12.776 161.595 13.4C162.219 14.008 162.531 14.96 162.531 16.256V18.776C162.531 19.496 162.411 20.136 162.171 20.696C161.931 21.256 161.579 21.728 161.115 22.112L158.019 24.704C157.571 25.072 157.027 25.352 156.387 25.544C155.747 25.752 155.027 25.856 154.227 25.856H146.643ZM157.323 23C158.859 23 160.067 22.64 160.947 21.92C161.843 21.184 162.291 20.136 162.291 18.776V16.256C162.291 14.912 161.947 13.952 161.259 13.376C160.571 12.8 159.667 12.432 158.547 12.272L154.971 11.792C154.763 11.776 154.603 11.696 154.491 11.552C154.379 11.408 154.323 11.232 154.323 11.024C154.323 10.816 154.379 10.648 154.491 10.52C154.603 10.376 154.763 10.304 154.971 10.304H160.563C160.867 10.304 161.083 10.24 161.211 10.112C161.355 9.968 161.427 9.744 161.427 9.44V6.584C161.427 6.28 161.355 6.064 161.211 5.936C161.083 5.792 160.867 5.72 160.563 5.72H153.843C152.291 5.72 151.075 6.088 150.195 6.824C149.315 7.544 148.875 8.584 148.875 9.944V12.464C148.875 13.808 149.211 14.768 149.883 15.344C150.571 15.92 151.475 16.288 152.595 16.448L156.195 16.952C156.403 16.968 156.555 17.04 156.651 17.168C156.763 17.296 156.819 17.496 156.819 17.768C156.819 17.96 156.763 18.128 156.651 18.272C156.555 18.4 156.403 18.464 156.195 18.464H149.739C149.435 18.464 149.211 18.536 149.067 18.68C148.939 18.808 148.875 19.024 148.875 19.328V22.136C148.875 22.44 148.939 22.664 149.067 22.808C149.211 22.936 149.435 23 149.739 23H157.323ZM159.267 7.88V8.12H153.939C153.267 8.12 152.731 8.304 152.331 8.672C151.931 9.04 151.731 9.504 151.731 10.064V12.032C151.731 12.592 151.843 12.984 152.067 13.208C152.291 13.432 152.587 13.576 152.955 13.64L158.019 14.672C158.499 14.768 158.891 14.976 159.195 15.296C159.515 15.616 159.675 16.192 159.675 17.024V18.416C159.675 19.12 159.435 19.704 158.955 20.168C158.475 20.616 157.827 20.84 157.011 20.84H151.035V20.6H157.011C157.747 20.6 158.331 20.4 158.763 20C159.211 19.584 159.435 19.056 159.435 18.416V17.024C159.435 16.272 159.299 15.76 159.027 15.488C158.771 15.2 158.419 15.008 157.971 14.912L152.907 13.88C152.491 13.8 152.147 13.64 151.875 13.4C151.619 13.144 151.491 12.688 151.491 12.032V10.064C151.491 9.424 151.715 8.904 152.163 8.504C152.611 8.088 153.203 7.88 153.939 7.88H159.267ZM174.915 25.856H164.691C164.307 25.856 164.027 25.768 163.851 25.592C163.675 25.416 163.587 25.136 163.587 24.752V21.896C163.587 21.688 163.611 21.512 163.659 21.368C163.723 21.224 163.811 21.104 163.923 21.008L166.827 18.56V13.208H164.691C164.307 13.208 164.027 13.12 163.851 12.944C163.675 12.768 163.587 12.488 163.587 12.104V9.2C163.587 8.992 163.611 8.816 163.659 8.672C163.723 8.528 163.811 8.408 163.923 8.312L167.019 5.696C167.099 5.632 167.203 5.584 167.331 5.552C167.475 5.504 167.627 5.48 167.787 5.48H178.011C178.395 5.48 178.675 5.568 178.851 5.744C179.027 5.92 179.115 6.2 179.115 6.584V9.488C179.115 9.696 179.083 9.872 179.019 10.016C178.971 10.16 178.891 10.28 178.779 10.376L175.923 12.776V18.176H178.011C178.395 18.176 178.675 18.264 178.851 18.44C179.027 18.616 179.115 18.896 179.115 19.28V22.136C179.115 22.344 179.083 22.52 179.019 22.664C178.971 22.808 178.891 22.928 178.779 23.024L175.659 25.616C175.595 25.68 175.491 25.736 175.347 25.784C175.219 25.832 175.075 25.856 174.915 25.856ZM167.787 23H178.011C178.315 23 178.531 22.936 178.659 22.808C178.803 22.664 178.875 22.44 178.875 22.136V19.28C178.875 18.976 178.803 18.76 178.659 18.632C178.531 18.488 178.315 18.416 178.011 18.416H175.683V10.352H178.011C178.315 10.352 178.531 10.288 178.659 10.16C178.803 10.016 178.875 9.792 178.875 9.488V6.584C178.875 6.28 178.803 6.064 178.659 5.936C178.531 5.792 178.315 5.72 178.011 5.72H167.787C167.483 5.72 167.259 5.792 167.115 5.936C166.987 6.064 166.923 6.28 166.923 6.584V9.488C166.923 9.792 166.987 10.016 167.115 10.16C167.259 10.288 167.483 10.352 167.787 10.352H170.163V18.416H167.787C167.483 18.416 167.259 18.488 167.115 18.632C166.987 18.76 166.923 18.976 166.923 19.28V22.136C166.923 22.44 166.987 22.664 167.115 22.808C167.259 22.936 167.483 23 167.787 23ZM176.715 20.84H169.083V20.6H172.803V8.12H169.083V7.88H176.715V8.12H173.043V20.6H176.715V20.84ZM192.677 13.76C192.965 13.76 193.173 13.696 193.301 13.568C193.429 13.44 193.629 13.168 193.901 12.752L196.829 8.288C196.925 8.128 197.029 8.024 197.141 7.976C197.269 7.912 197.397 7.88 197.525 7.88H197.933C198.157 7.88 198.317 7.944 198.413 8.072C198.525 8.184 198.581 8.368 198.581 8.624V20.84H198.341V8.624C198.341 8.496 198.309 8.384 198.245 8.288C198.197 8.176 198.093 8.12 197.933 8.12H197.573C197.461 8.12 197.365 8.136 197.285 8.168C197.205 8.2 197.117 8.296 197.021 8.456L194.093 12.872C193.805 13.304 193.581 13.6 193.421 13.76C193.277 13.92 193.029 14 192.677 14C192.325 14 192.069 13.92 191.909 13.76C191.765 13.6 191.549 13.304 191.261 12.872L188.333 8.456C188.237 8.296 188.141 8.2 188.045 8.168C187.965 8.136 187.869 8.12 187.757 8.12H187.397C187.237 8.12 187.133 8.176 187.085 8.288C187.037 8.384 187.013 8.496 187.013 8.624V20.84H186.773V8.624C186.773 8.368 186.821 8.184 186.917 8.072C187.029 7.944 187.189 7.88 187.397 7.88H187.805C187.933 7.88 188.061 7.912 188.189 7.976C188.317 8.024 188.429 8.128 188.525 8.288L191.453 12.752C191.725 13.168 191.925 13.44 192.053 13.568C192.181 13.696 192.389 13.76 192.677 13.76ZM188.669 23C188.973 23 189.189 22.936 189.317 22.808C189.461 22.664 189.533 22.44 189.533 22.136V13.688L190.949 16.304C191.093 16.576 191.261 16.776 191.453 16.904C191.661 17.016 191.917 17.072 192.221 17.072H193.181C193.485 17.072 193.733 17.016 193.924 16.904C194.133 16.776 194.309 16.576 194.453 16.304L195.869 13.688V22.136C195.869 22.44 195.933 22.664 196.061 22.808C196.205 22.936 196.429 23 196.733 23H200.429C200.733 23 200.949 22.936 201.077 22.808C201.221 22.664 201.293 22.44 201.293 22.136V6.584C201.293 6.28 201.221 6.064 201.077 5.936C200.949 5.792 200.733 5.72 200.429 5.72H196.541C196.285 5.72 196.069 5.776 195.893 5.888C195.733 6 195.581 6.184 195.437 6.44L193.301 10.352C193.221 10.496 193.149 10.6 193.085 10.664C193.037 10.728 192.965 10.76 192.869 10.76H192.653C192.557 10.76 192.477 10.728 192.413 10.664C192.365 10.6 192.301 10.496 192.221 10.352L190.061 6.44C189.917 6.184 189.757 6 189.581 5.888C189.421 5.776 189.213 5.72 188.957 5.72H185.093C184.789 5.72 184.565 5.792 184.421 5.936C184.293 6.064 184.229 6.28 184.229 6.584V22.136C184.229 22.44 184.293 22.664 184.421 22.808C184.565 22.936 184.789 23 185.093 23H188.669ZM189.437 23.024L186.317 25.616C186.253 25.68 186.149 25.736 186.005 25.784C185.877 25.832 185.733 25.856 185.573 25.856H181.997C181.613 25.856 181.333 25.768 181.157 25.592C180.981 25.416 180.893 25.136 180.893 24.752V9.2C180.893 8.992 180.917 8.816 180.965 8.672C181.029 8.528 181.117 8.408 181.229 8.312L184.325 5.696C184.405 5.632 184.509 5.584 184.637 5.552C184.781 5.504 184.933 5.48 185.093 5.48H188.957C189.261 5.48 189.509 5.544 189.701 5.672C189.909 5.8 190.101 6.016 190.277 6.32L191.909 9.32L192.125 8.936C192.189 8.824 192.253 8.72 192.317 8.624C192.397 8.512 192.477 8.424 192.557 8.36L195.653 5.768C195.781 5.672 195.909 5.6 196.037 5.552C196.181 5.504 196.349 5.48 196.541 5.48H200.429C200.813 5.48 201.093 5.568 201.269 5.744C201.445 5.92 201.533 6.2 201.533 6.584V22.136C201.533 22.344 201.501 22.52 201.437 22.664C201.389 22.808 201.309 22.928 201.197 23.024L198.077 25.616C198.013 25.68 197.909 25.736 197.765 25.784C197.637 25.832 197.493 25.856 197.333 25.856H193.637C193.237 25.856 192.949 25.768 192.773 25.592C192.613 25.416 192.533 25.136 192.533 24.752V18.416L191.117 19.592C190.989 19.704 190.837 19.792 190.661 19.856C190.501 19.904 190.309 19.928 190.085 19.928H189.773V22.136C189.773 22.344 189.741 22.52 189.677 22.664C189.629 22.808 189.549 22.928 189.437 23.024ZM217.354 24.704C216.794 25.184 216.01 25.552 215.002 25.808C213.994 26.08 212.698 26.216 211.114 26.216C209.546 26.216 208.258 26.048 207.25 25.712C206.258 25.392 205.474 24.96 204.898 24.416C204.338 23.872 203.946 23.248 203.722 22.544C203.514 21.84 203.41 21.112 203.41 20.36V12.896C203.41 12.16 203.514 11.48 203.722 10.856C203.93 10.216 204.306 9.672 204.85 9.224L207.97 6.632C208.53 6.152 209.306 5.784 210.298 5.528C211.306 5.256 212.61 5.12 214.21 5.12C215.778 5.12 217.058 5.248 218.05 5.504C219.058 5.76 219.842 6.12 220.402 6.584C220.978 7.032 221.37 7.576 221.578 8.216C221.786 8.84 221.89 9.528 221.89 10.28V18.464C221.89 19.2 221.786 19.88 221.578 20.504C221.37 21.128 220.994 21.664 220.45 22.112L217.354 24.704ZM221.65 18.464V10.28C221.65 9.544 221.538 8.88 221.314 8.288C221.106 7.68 220.722 7.16 220.162 6.728C219.618 6.296 218.858 5.96 217.882 5.72C216.922 5.48 215.698 5.36 214.21 5.36C212.722 5.36 211.49 5.48 210.514 5.72C209.538 5.96 208.77 6.296 208.21 6.728C207.666 7.16 207.282 7.68 207.058 8.288C206.85 8.88 206.746 9.544 206.746 10.28V18.464C206.746 19.2 206.85 19.872 207.058 20.48C207.282 21.072 207.666 21.584 208.21 22.016C208.77 22.432 209.538 22.76 210.514 23C211.49 23.24 212.722 23.36 214.21 23.36C215.698 23.36 216.922 23.24 217.882 23C218.858 22.76 219.618 22.432 220.162 22.016C220.722 21.584 221.106 21.072 221.314 20.48C221.538 19.872 221.65 19.2 221.65 18.464ZM219.034 17.912C219.034 18.872 218.69 19.656 218.002 20.264C217.314 20.856 216.034 21.152 214.162 21.152C212.29 21.152 211.018 20.856 210.346 20.264C209.674 19.656 209.338 18.872 209.338 17.912V10.832C209.338 9.872 209.674 9.096 210.346 8.504C211.018 7.896 212.29 7.592 214.162 7.592C216.034 7.592 217.314 7.896 218.002 8.504C218.69 9.096 219.034 9.872 219.034 10.832V17.912ZM209.578 17.912C209.578 18.808 209.898 19.536 210.538 20.096C211.178 20.64 212.386 20.912 214.162 20.912C215.938 20.912 217.154 20.64 217.81 20.096C218.466 19.536 218.794 18.808 218.794 17.912V10.832C218.794 9.936 218.466 9.216 217.81 8.672C217.154 8.112 215.938 7.832 214.162 7.832C212.386 7.832 211.178 8.112 210.538 8.672C209.898 9.216 209.578 9.936 209.578 10.832V17.912ZM212.194 17.6V11.144C212.194 10.84 212.314 10.584 212.554 10.376C212.794 10.152 213.346 10.04 214.21 10.04C215.074 10.04 215.626 10.152 215.866 10.376C216.106 10.584 216.226 10.84 216.226 11.144V17.6C216.226 17.92 216.106 18.192 215.866 18.416C215.626 18.624 215.074 18.728 214.21 18.728C213.346 18.728 212.794 18.624 212.554 18.416C212.314 18.192 212.194 17.92 212.194 17.6ZM212.434 17.6C212.434 17.76 212.466 17.904 212.53 18.032C212.594 18.144 212.714 18.24 212.89 18.32V13.76C212.89 13.6 212.858 13.464 212.794 13.352C212.73 13.224 212.61 13.128 212.434 13.064V17.6ZM227.984 25.856C227.616 25.856 227.32 25.784 227.096 25.64C226.872 25.512 226.688 25.272 226.544 24.92L224.192 19.04C224.048 18.672 223.92 18.36 223.808 18.104C223.712 17.832 223.632 17.576 223.568 17.336C223.504 17.08 223.456 16.816 223.424 16.544C223.408 16.256 223.4 15.92 223.4 15.536V9.2C223.4 8.992 223.424 8.816 223.472 8.672C223.536 8.528 223.624 8.408 223.736 8.312L226.832 5.696C226.912 5.632 227.016 5.584 227.144 5.552C227.288 5.504 227.44 5.48 227.6 5.48H231.416C231.8 5.48 232.088 5.576 232.28 5.768C232.488 5.944 232.592 6.216 232.592 6.584V13.208C232.592 13.368 232.608 13.52 232.64 13.664C232.672 13.808 232.712 13.96 232.76 14.12L232.832 14.288V9.2C232.832 8.992 232.856 8.816 232.904 8.672C232.968 8.528 233.056 8.408 233.168 8.312L236.264 5.696C236.344 5.632 236.448 5.584 236.576 5.552C236.72 5.504 236.872 5.48 237.032 5.48H240.8C241.2 5.48 241.48 5.568 241.64 5.744C241.816 5.92 241.904 6.2 241.904 6.584V12.92C241.904 13.304 241.888 13.64 241.856 13.928C241.84 14.2 241.8 14.464 241.736 14.72C241.672 14.96 241.584 15.216 241.472 15.488C241.376 15.744 241.256 16.056 241.112 16.424L238.76 22.304C238.712 22.448 238.648 22.576 238.568 22.688C238.488 22.8 238.408 22.888 238.328 22.952L235.232 25.52C235.104 25.632 234.952 25.712 234.776 25.76C234.616 25.824 234.432 25.856 234.224 25.856H227.984ZM237.32 23C237.624 23 237.872 22.944 238.064 22.832C238.272 22.72 238.432 22.512 238.544 22.208L240.896 16.328C241.04 15.976 241.16 15.672 241.256 15.416C241.352 15.144 241.432 14.888 241.496 14.648C241.56 14.408 241.6 14.16 241.616 13.904C241.648 13.632 241.664 13.304 241.664 12.92V6.584C241.664 6.28 241.592 6.064 241.448 5.936C241.32 5.792 241.104 5.72 240.8 5.72H237.032C236.728 5.72 236.504 5.792 236.36 5.936C236.232 6.064 236.168 6.28 236.168 6.584V13.184C236.168 13.344 236.152 13.504 236.12 13.664C236.088 13.824 236.04 13.992 235.976 14.168L234.848 17.552C234.8 17.712 234.744 17.824 234.68 17.888C234.616 17.936 234.52 17.96 234.392 17.96H234.128C234 17.96 233.904 17.936 233.84 17.888C233.776 17.824 233.72 17.712 233.672 17.552L232.544 14.192C232.48 14.016 232.432 13.848 232.4 13.688C232.368 13.528 232.352 13.368 232.352 13.208V6.584C232.352 6.28 232.272 6.064 232.112 5.936C231.952 5.792 231.72 5.72 231.416 5.72H227.6C227.296 5.72 227.072 5.792 226.928 5.936C226.8 6.064 226.736 6.28 226.736 6.584V12.92C226.736 13.304 226.744 13.632 226.76 13.904C226.792 14.16 226.84 14.408 226.904 14.648C226.968 14.888 227.048 15.144 227.144 15.416C227.24 15.672 227.36 15.976 227.504 16.328L229.856 22.208C229.968 22.512 230.12 22.72 230.312 22.832C230.52 22.944 230.776 23 231.08 23H237.32ZM229.448 7.88H229.688V13.064C229.688 13.48 229.72 13.88 229.784 14.264C229.848 14.632 229.944 14.976 230.072 15.296L231.656 19.136C231.816 19.552 231.992 19.904 232.184 20.192C232.392 20.464 232.72 20.6 233.168 20.6H235.28C235.728 20.6 236.048 20.464 236.24 20.192C236.448 19.904 236.632 19.552 236.792 19.136L238.376 15.296C238.504 14.976 238.6 14.632 238.664 14.264C238.728 13.88 238.76 13.48 238.76 13.064V7.88H239V13.064C239 13.512 238.968 13.928 238.904 14.312C238.856 14.68 238.76 15.04 238.616 15.392L237.032 19.232C236.84 19.696 236.624 20.08 236.384 20.384C236.144 20.688 235.776 20.84 235.28 20.84H233.168C232.672 20.84 232.304 20.688 232.064 20.384C231.824 20.08 231.608 19.696 231.416 19.232L229.832 15.392C229.688 15.04 229.584 14.68 229.52 14.312C229.472 13.928 229.448 13.512 229.448 13.064V7.88Z" fill="#2F80ED"/>
</svg>
