<?xml version="1.0" standalone="no"?>
<!DOCTYPE svg PUBLIC "-//W3C//DTD SVG 20010904//EN"
 "http://www.w3.org/TR/2001/REC-SVG-20010904/DTD/svg10.dtd">
<svg version="1.0" xmlns="http://www.w3.org/2000/svg"
 width="20" height="20" viewBox="0 0 1347.000000 1280.000000"
 preserveAspectRatio="xMidYMid meet">
<metadata>
Created by potrace 1.16, written by Peter Selinger 2001-2019
</metadata>
<g transform="translate(0.000000,1280.000000) scale(0.100000,-0.100000)"
fill="#000000" stroke="none">
<path d="M6300 12529 c-1418 -100 -2734 -636 -3790 -1545 -63 -55 -195 -178
-294 -274 -959 -937 -1579 -2119 -1801 -3430 -65 -383 -67 -409 -72 -942 -5
-532 0 -643 43 -948 75 -534 209 -1029 408 -1515 84 -203 280 -595 393 -785
207 -346 407 -625 677 -940 139 -163 534 -552 706 -695 580 -483 1198 -841
1913 -1109 214 -80 255 -89 366 -84 136 6 220 58 277 169 l25 51 -1 581 c0
319 -3 583 -6 586 -2 3 -57 -3 -122 -13 -254 -38 -383 -48 -577 -43 -492 12
-854 155 -1150 452 -139 139 -218 262 -317 495 -170 398 -377 663 -689 882
-137 98 -234 190 -245 235 -9 35 23 74 82 98 40 16 72 19 179 19 112 -1 142
-4 220 -28 116 -35 232 -90 331 -156 106 -71 313 -280 394 -399 36 -51 92
-132 125 -180 33 -47 107 -134 165 -192 229 -232 490 -348 825 -365 228 -12
473 32 737 132 l67 25 11 57 c27 134 73 291 111 378 48 108 153 271 235 361
66 73 87 61 -171 98 -976 140 -1619 447 -2072 988 -269 323 -465 772 -552
1267 -46 262 -55 388 -56 760 0 391 3 423 70 686 87 340 250 658 478 930 46
55 87 106 91 112 4 7 -9 60 -29 117 -62 180 -76 270 -82 542 -8 357 15 531
113 832 61 191 50 181 192 181 225 0 452 -55 756 -182 222 -92 502 -242 750
-400 l111 -71 105 27 c944 240 1976 245 2932 15 l168 -41 145 92 c429 269 849
460 1170 532 92 20 351 36 399 24 20 -5 30 -21 54 -84 113 -294 174 -688 152
-988 -15 -207 -49 -378 -116 -575 -4 -11 15 -39 52 -80 126 -141 245 -319 343
-518 109 -217 168 -392 218 -646 27 -137 28 -148 28 -490 0 -370 -8 -492 -50
-742 -89 -526 -276 -961 -560 -1303 -78 -93 -280 -290 -361 -352 -168 -129
-446 -284 -649 -364 -220 -86 -520 -170 -775 -218 -105 -20 -472 -76 -495 -76
-17 0 4 -35 62 -100 144 -164 234 -345 298 -600 42 -165 45 -210 46 -715 1
-269 4 -740 8 -1045 8 -622 4 -591 82 -667 62 -59 106 -75 224 -81 121 -5 158
3 384 87 864 323 1601 784 2235 1401 366 356 624 662 874 1038 525 785 853
1652 986 2599 41 292 48 440 43 949 -5 512 -14 618 -86 1009 -169 920 -515
1742 -1047 2492 -213 299 -407 527 -693 814 -521 520 -1027 883 -1686 1209
-780 385 -1593 603 -2460 660 -182 11 -683 11 -855 -1z"/>
</g>
</svg>
