<?xml version="1.0" standalone="no"?>
<!DOCTYPE svg PUBLIC "-//W3C//DTD SVG 20010904//EN"
 "http://www.w3.org/TR/2001/REC-SVG-20010904/DTD/svg10.dtd">
<svg version="1.0" xmlns="http://www.w3.org/2000/svg"
 width="20" height="20" viewBox="0 0 1347.000000 1280.000000"
 preserveAspectRatio="xMidYMid meet">
<metadata>
Created by potrace 1.16, written by Peter Selinger 2001-2019
</metadata>
<g transform="translate(0.000000,1280.000000) scale(0.100000,-0.100000)"
fill="#000000" stroke="none">
<path d="M988 12770 c-159 -53 -260 -113 -372 -219 -126 -122 -213 -271 -261
-451 l-25 -95 0 -5605 0 -5605 25 -92 c33 -122 64 -198 117 -280 119 -184 294
-318 508 -390 l85 -28 5680 0 5680 0 91 36 c135 52 237 115 326 198 136 128
223 275 273 461 l25 95 0 5611 0 5611 -31 104 c-97 327 -308 544 -631 650
l-90 29 -5656 -1 -5657 0 -87 -29z m3380 -2739 c259 -75 443 -236 540 -471 40
-99 55 -182 54 -310 -2 -266 -135 -507 -357 -645 -231 -145 -570 -177 -845
-81 -330 114 -535 425 -517 786 15 312 188 553 486 680 132 56 214 69 416 65
116 -2 167 -8 223 -24z m4611 -2137 c735 -107 1229 -568 1417 -1324 65 -263
75 -363 84 -890 5 -261 9 -942 9 -1512 l1 -1038 -770 0 -770 0 0 1143 c-1
1473 -8 1668 -71 1879 -92 311 -297 500 -585 539 -106 14 -295 6 -374 -15 -30
-8 -101 -38 -157 -66 -205 -101 -379 -316 -449 -555 -16 -56 -18 -164 -21
-1492 l-4 -1433 -770 0 -769 0 0 2340 0 2340 770 0 770 0 0 -319 c0 -176 3
-327 6 -335 4 -12 27 13 81 86 96 130 313 347 418 417 187 124 432 211 690
244 86 11 396 6 494 -9z m-4109 -2424 l0 -2340 -770 0 -770 0 0 2340 0 2340
770 0 770 0 0 -2340z"/>
</g>
</svg>
