<?xml version="1.0" standalone="no"?>
<!DOCTYPE svg PUBLIC "-//W3C//DTD SVG 20010904//EN"
 "http://www.w3.org/TR/2001/REC-SVG-20010904/DTD/svg10.dtd">
<svg version="1.0" xmlns="http://www.w3.org/2000/svg"
 width="19" height="20" viewBox="0 0 1280.000000 1280.000000"
 preserveAspectRatio="xMidYMid meet">
<metadata>
Created by potrace 1.16, written by Peter Selinger 2001-2019
</metadata>
<g transform="translate(0.000000,1280.000000) scale(0.100000,-0.100000)"
fill="#000000" stroke="none">
<path d="M691 12775 c-322 -84 -569 -326 -663 -652 l-23 -78 0 -5645 0 -5645
23 -80 c94 -326 343 -568 671 -651 l94 -24 5607 0 5607 0 94 24 c169 43 289
109 417 230 135 128 230 300 266 481 15 73 16 581 14 5700 l-3 5620 -23 73
c-102 331 -344 565 -667 647 l-98 25 -5611 0 -5611 -1 -94 -24z m8979 -3390
l0 -775 -1267 0 c-1307 0 -1455 -4 -1636 -41 -347 -70 -564 -249 -639 -526
-29 -108 -31 -336 -4 -438 24 -93 76 -203 130 -279 121 -170 349 -317 546
-352 60 -11 348 -13 1473 -14 l1397 0 0 -775 0 -775 -2340 3 -2340 2 0 772 0
773 332 2 332 3 -99 70 c-134 93 -342 302 -419 419 -201 306 -286 687 -246
1111 46 483 258 891 605 1160 330 256 767 398 1300 424 88 4 771 9 1518 9
l1357 2 0 -775z m-5925 -4775 c90 -23 208 -83 287 -144 209 -165 321 -447 305
-766 -21 -395 -246 -687 -602 -780 -111 -29 -288 -29 -400 -1 -232 60 -405
205 -511 427 -69 143 -88 238 -88 429 1 140 4 172 26 256 78 289 273 493 550
574 134 38 295 40 433 5z m5925 -845 l0 -775 -2340 0 -2340 0 0 775 0 775
2340 0 2340 0 0 -775z"/>
</g>
</svg>
