<?xml version="1.0" standalone="no"?>
<!DOCTYPE svg PUBLIC "-//W3C//DTD SVG 20010904//EN"
 "http://www.w3.org/TR/2001/REC-SVG-20010904/DTD/svg10.dtd">
<svg version="1.0" xmlns="http://www.w3.org/2000/svg"
 width="19" height="20" viewBox="0 0 1280.000000 1280.000000"
 preserveAspectRatio="xMidYMid meet">
<metadata>
Created by potrace 1.16, written by Peter Selinger 2001-2019
</metadata>
<g transform="translate(0.000000,1280.000000) scale(0.100000,-0.100000)"
fill="#000000" stroke="none">
<path d="M2071 12784 c-426 -54 -826 -225 -1161 -495 -120 -97 -298 -274 -394
-393 -224 -276 -393 -624 -465 -957 -54 -251 -51 3 -51 -4539 0 -4520 -3
-4273 50 -4530 69 -332 240 -687 465 -965 93 -115 274 -296 390 -390 272 -221
626 -393 956 -464 251 -54 -3 -51 4539 -51 4578 0 4293 -3 4554 55 321 73 659
235 914 439 527 420 839 963 918 1596 12 97 14 733 14 4310 0 3712 -2 4210
-15 4320 -70 565 -329 1055 -772 1461 -370 340 -805 543 -1293 604 -110 13
-596 15 -4335 14 -3454 -1 -4229 -4 -4314 -15z m2214 -2323 c155 -123 383
-352 513 -515 57 -70 106 -134 109 -142 4 -11 54 -13 251 -13 336 0 573 -22
896 -82 997 -186 1914 -668 2659 -1399 496 -485 815 -968 1072 -1625 176 -449
282 -911 327 -1425 16 -188 16 -707 -1 -875 -67 -684 -227 -1238 -525 -1820
-94 -184 -216 -399 -222 -392 -2 1 2 63 8 137 29 376 -21 849 -129 1230 -109
383 -326 813 -572 1135 l-46 60 -12 -130 c-22 -228 -65 -388 -158 -583 -128
-267 -332 -509 -580 -688 -84 -60 -313 -181 -414 -219 l-44 -16 7 58 c21 179
25 274 15 373 -10 103 -44 282 -58 308 -5 8 -17 -25 -31 -80 -107 -435 -370
-806 -757 -1067 -255 -172 -586 -281 -857 -281 -91 0 -88 -15 -26 135 81 197
136 423 147 600 3 55 3 98 0 95 -3 -3 -33 -43 -67 -90 -143 -196 -388 -401
-593 -499 -486 -231 -1089 -226 -1565 13 l-104 52 103 89 c137 117 433 415
538 540 509 613 855 1286 1040 2025 73 290 141 732 141 916 0 46 -3 55 -15 50
-58 -22 -172 -31 -385 -31 -217 1 -245 3 -361 28 -226 48 -410 125 -591 246
-471 317 -757 805 -787 1343 -28 512 123 948 443 1285 67 70 96 108 96 125 0
41 -67 297 -113 433 -69 202 -161 412 -256 583 -48 85 -53 84 99 20 310 -131
566 -341 751 -616 81 -121 83 -119 44 91 -44 239 -121 505 -205 711 l-39 97
67 -47 c37 -26 121 -90 187 -143z"/>
</g>
</svg>
