<?xml version="1.0" standalone="no"?>
<!DOCTYPE svg PUBLIC "-//W3C//DTD SVG 20010904//EN"
 "http://www.w3.org/TR/2001/REC-SVG-20010904/DTD/svg10.dtd">
<svg version="1.0" xmlns="http://www.w3.org/2000/svg"
 width="20" height="20" viewBox="0 0 1347.000000 1280.000000"
 preserveAspectRatio="xMidYMid meet">
<metadata>
Created by potrace 1.16, written by Peter Selinger 2001-2019
</metadata>
<g transform="translate(0.000000,1280.000000) scale(0.100000,-0.100000)"
fill="#000000" stroke="none">
<path d="M2465 12790 c-380 -21 -817 -191 -1172 -456 -98 -74 -333 -301 -429
-417 -287 -342 -481 -800 -517 -1216 -18 -211 -18 -8377 0 -8596 35 -421 227
-873 520 -1227 230 -277 500 -492 808 -644 211 -103 394 -163 645 -211 91 -17
287 -18 4410 -18 4148 0 4319 1 4420 18 504 89 914 304 1284 673 392 392 615
838 688 1374 18 132 17 8502 -1 8654 -51 434 -235 859 -515 1193 -96 116 -331
343 -429 417 -266 199 -593 350 -908 422 -80 18 -165 28 -284 34 -199 11
-8326 10 -8520 0z m6070 -3211 c292 -25 550 -111 770 -257 99 -65 133 -92 254
-199 97 -87 97 -87 274 -42 265 66 506 157 757 284 79 41 146 72 148 70 6 -6
-68 -178 -110 -255 -133 -245 -314 -446 -551 -609 -42 -30 -77 -58 -77 -64 0
-26 287 27 537 99 84 24 212 66 285 93 73 27 134 48 136 47 6 -7 -193 -259
-286 -362 -118 -131 -316 -315 -445 -415 -51 -39 -95 -79 -98 -88 -4 -9 -9
-151 -12 -316 -3 -168 -13 -359 -22 -435 -118 -1019 -512 -1933 -1175 -2730
-126 -152 -498 -526 -635 -639 -365 -302 -706 -506 -1160 -696 -430 -180 -882
-297 -1377 -357 -160 -19 -233 -22 -583 -22 -397 0 -434 2 -705 40 -481 68
-921 197 -1364 400 -135 63 -402 202 -509 267 l-54 32 331 0 c361 0 458 8 751
66 371 72 739 216 1091 426 136 82 364 240 364 254 0 4 -26 10 -57 14 -349 38
-522 88 -748 217 -198 112 -409 294 -546 471 -104 134 -307 520 -266 504 8 -3
82 -11 165 -18 165 -14 284 -6 461 31 138 28 137 29 -26 77 -236 69 -455 180
-633 322 -108 86 -270 256 -353 372 -129 180 -252 463 -292 670 -18 99 -32
299 -20 299 5 0 66 -23 136 -50 219 -86 482 -145 623 -138 l69 3 -96 73 c-192
146 -388 378 -487 577 -234 471 -235 1060 -3 1548 l57 118 40 -48 c185 -218
507 -531 711 -689 694 -539 1436 -871 2265 -1013 237 -41 406 -61 518 -61 84
0 93 2 88 18 -20 62 -27 157 -27 373 0 210 3 261 21 347 68 335 213 609 455
861 378 393 868 577 1410 530z"/>
</g>
</svg>
