<svg width="32" height="32" viewBox="0 0 32 32" fill="none" xmlns="http://www.w3.org/2000/svg">
<g clip-path="url(#clip0)">
<path d="M22.984 31.0054L16.1654 23.8921C15.5667 23.2932 15.1716 22.5212 15.0359 21.6854C14.9002 20.8496 15.0309 19.9922 15.4094 19.2347C15.6955 18.6638 16.1131 18.1689 16.6278 17.7907C17.1425 17.4126 17.7397 17.1621 18.3701 17.0598C19.0005 16.9575 19.6462 17.0063 20.2541 17.2022C20.862 17.3981 21.4147 17.7356 21.8667 18.1867L22.98 19.3001L24.0934 18.1867C24.5453 17.7347 25.0981 17.3966 25.7063 17.2002C26.3145 17.0038 26.9607 16.9547 27.5916 17.0571C28.2225 17.1594 28.8201 17.4102 29.335 17.7889C29.85 18.1675 30.2676 18.6631 30.5534 19.2347C30.9319 19.9922 31.0625 20.8496 30.9268 21.6854C30.7911 22.5212 30.396 23.2932 29.7974 23.8921L22.984 31.0054Z" stroke="#F2A278" stroke-width="2" stroke-linecap="round" stroke-linejoin="round"/>
<path d="M10.984 27.0054H2.98401C2.45358 27.0054 1.94487 26.7947 1.5698 26.4196C1.19472 26.0445 0.984009 25.5358 0.984009 25.0054V3.00537C0.984009 2.47494 1.19472 1.96623 1.5698 1.59116C1.94487 1.21608 2.45358 1.00537 2.98401 1.00537H17.1547C17.4174 1.00525 17.6775 1.05688 17.9202 1.15732C18.163 1.25775 18.3835 1.40502 18.5693 1.5907L22.4 5.4187C22.5859 5.6044 22.7335 5.82492 22.8341 6.06766C22.9348 6.3104 22.9866 6.57059 22.9867 6.83337V12" stroke="#F2A278" stroke-width="2" stroke-linecap="round" stroke-linejoin="round"/>
<path d="M11.984 8.00537L14.984 11.0054L11.984 14.0054" stroke="#F2A278" stroke-width="2" stroke-linecap="round" stroke-linejoin="round"/>
<path d="M7.98401 8.00537L4.98401 11.0054L7.98401 14.0054" stroke="#F2A278" stroke-width="2" stroke-linecap="round" stroke-linejoin="round"/>
</g>
<defs>
<clipPath id="clip0">
<rect width="32" height="32" fill="white"/>
</clipPath>
</defs>
</svg>
