<svg width="32" height="32" viewBox="0 0 32 32" fill="none" xmlns="http://www.w3.org/2000/svg">
<path d="M31 13V29C31 29.5304 30.7893 30.0391 30.4142 30.4142C30.0391 30.7893 29.5304 31 29 31H3C2.46957 31 1.96086 30.7893 1.58579 30.4142C1.21071 30.0391 1 29.5304 1 29V10C1 9.46957 1.21071 8.96086 1.58579 8.58579C1.96086 8.21071 2.46957 8 3 8H15" stroke="#F2A278" stroke-width="2" stroke-linecap="round" stroke-linejoin="round"/>
<path d="M29.9601 5.53194L21.2801 16.9466L16.4641 18.6239L16.7681 13.5346L25.4481 2.11861C25.8994 1.52229 26.5691 1.12959 27.3099 1.02683C28.0508 0.924071 28.8021 1.11966 29.3987 1.57061L29.4121 1.58128C30.0084 2.03267 30.4011 2.70237 30.5038 3.44318C30.6066 4.18399 30.411 4.93529 29.9601 5.53194V5.53194Z" stroke="#F2A278" stroke-width="2" stroke-linecap="round" stroke-linejoin="round"/>
<path d="M12.4694 18.4893C9.02004 23.0173 12.1734 27.9999 16.4894 27.9999C17.3346 27.9992 18.1683 27.8036 18.9257 27.4284C19.6831 27.0532 20.3438 26.5085 20.8566 25.8366C21.3694 25.1647 21.7204 24.3836 21.8824 23.554C22.0444 22.7245 22.013 21.8687 21.7907 21.0533" stroke="#F2A278" stroke-width="2" stroke-linecap="round" stroke-linejoin="round"/>
<path d="M11.0227 22.0213H8.28667C8.11776 22.0215 7.95048 21.9884 7.79438 21.9238C7.63828 21.8593 7.49643 21.7647 7.37694 21.6453C7.25744 21.5259 7.16265 21.3842 7.09797 21.2282C7.03329 21.0721 7 20.9049 7 20.736V14.308C7 13.9667 7.13556 13.6395 7.37686 13.3982C7.61815 13.1569 7.94542 13.0213 8.28667 13.0213H12" stroke="#F2A278" stroke-width="2" stroke-linecap="round" stroke-linejoin="round"/>
</svg>
