<svg width="191" height="66" viewBox="0 0 191 66" fill="none" xmlns="http://www.w3.org/2000/svg">
<path fill-rule="evenodd" clip-rule="evenodd" d="M8.84054 64.6401C8.11681 65.0547 7.25844 65.1662 6.45281 64.9502C5.64719 64.7342 4.95974 64.2082 4.54053 63.4871C4.33344 63.1311 4.19881 62.7375 4.14438 62.3292C4.08996 61.9209 4.11683 61.5059 4.22343 61.108C4.33004 60.7101 4.51428 60.3372 4.76555 60.0108C5.01682 59.6844 5.33016 59.4109 5.68754 59.2061L36.0515 41.7661C36.4079 41.5607 36.7202 41.2869 36.9706 40.9605C37.2209 40.6341 37.4043 40.2614 37.5102 39.8639C37.6161 39.4664 37.6425 39.0519 37.5878 38.6442C37.5331 38.2365 37.3984 37.8436 37.1915 37.4881C36.7722 36.7672 36.0846 36.2415 35.279 36.0256C34.4734 35.8098 33.6151 35.9214 32.8915 36.3361L27.7265 39.3031L19.5265 44.0131C18.8028 44.4277 17.9444 44.5392 17.1388 44.3232C16.3332 44.1072 15.6457 43.5812 15.2265 42.8601C15.0194 42.504 14.8848 42.1105 14.8304 41.7022C14.776 41.2939 14.8028 40.8789 14.9094 40.481C15.016 40.0831 15.2003 39.7102 15.4515 39.3838C15.7028 39.0574 16.0162 38.784 16.3735 38.5791L24.5735 33.8691L37.6275 26.3711C37.9849 26.1663 38.2983 25.8928 38.5495 25.5664C38.8008 25.24 38.985 24.8671 39.0916 24.4692C39.1982 24.0714 39.2251 23.6563 39.1707 23.248C39.1163 22.8397 38.9816 22.4462 38.7745 22.0901C38.3576 21.3733 37.6755 20.8492 36.8754 20.631C36.0754 20.4128 35.2216 20.5181 34.4985 20.9241L4.72354 38.0251C3.99993 38.4398 3.14165 38.5514 2.33604 38.3356C1.53043 38.1198 0.842904 37.594 0.423536 36.8731C0.21644 36.517 0.0818066 36.1235 0.027385 35.7152C-0.0270366 35.3069 -0.000171944 34.8919 0.106432 34.494C0.213036 34.0961 0.397275 33.7232 0.648546 33.3968C0.899816 33.0704 1.21316 32.797 1.57054 32.5921L18.2665 23.0021L53.2105 2.93212C63.7405 -3.11688 77.2185 0.494116 83.3135 10.9971C89.4095 21.5001 85.8135 34.9171 75.2835 40.9671L67.6485 45.3521L37.6015 62.6091C36.8779 63.0238 36.0196 63.1354 35.214 62.9196C34.4084 62.7038 33.7209 62.178 33.3015 61.4571C33.0944 61.101 32.9598 60.7075 32.9054 60.2992C32.851 59.8909 32.8778 59.4759 32.9844 59.078C33.091 58.6801 33.2753 58.3072 33.5265 57.9808C33.7778 57.6544 34.0912 57.381 34.4485 57.1761L37.1865 55.6031L49.0265 48.8031C49.3841 48.5984 49.6977 48.3249 49.9491 47.9985C50.2006 47.672 50.385 47.299 50.4917 46.901C50.5984 46.503 50.6253 46.0878 50.5709 45.6794C50.5164 45.2709 50.3817 44.8773 50.1745 44.5211C49.7559 43.8014 49.0699 43.2762 48.2659 43.0597C47.4619 42.8432 46.605 42.953 45.8815 43.3651L8.84054 64.6391V64.6401Z" fill="#F2A278"/>
<path d="M63.68 16.2H68.432V29.232H76.448V33H63.68V16.2ZM91.8164 29.328V33H78.3284V16.2H91.5044V19.872H83.0324V22.704H90.4964V26.256H83.0324V29.328H91.8164ZM110.437 16.2V33H106.525L99.1094 24.048V33H94.4534V16.2H98.3654L105.781 25.152V16.2H110.437ZM125.045 29.736H117.941L116.621 33H111.773L119.189 16.2H123.869L131.309 33H126.365L125.045 29.736ZM123.653 26.232L121.493 20.856L119.333 26.232H123.653ZM140.001 28.536H137.409V33H132.657V16.2H140.337C141.857 16.2 143.177 16.456 144.297 16.968C145.417 17.464 146.281 18.184 146.889 19.128C147.497 20.056 147.801 21.152 147.801 22.416C147.801 23.632 147.513 24.696 146.937 25.608C146.377 26.504 145.569 27.208 144.513 27.72L148.137 33H143.049L140.001 28.536ZM143.001 22.416C143.001 21.632 142.753 21.024 142.257 20.592C141.761 20.16 141.025 19.944 140.049 19.944H137.409V24.864H140.049C141.025 24.864 141.761 24.656 142.257 24.24C142.753 23.808 143.001 23.2 143.001 22.416ZM152.126 33.216C151.358 33.216 150.71 32.96 150.182 32.448C149.654 31.936 149.39 31.288 149.39 30.504C149.39 29.704 149.646 29.056 150.158 28.56C150.686 28.064 151.342 27.816 152.126 27.816C152.926 27.816 153.582 28.064 154.094 28.56C154.606 29.056 154.862 29.704 154.862 30.504C154.862 31.288 154.598 31.936 154.07 32.448C153.558 32.96 152.91 33.216 152.126 33.216ZM164.899 16.2C166.419 16.2 167.739 16.456 168.859 16.968C169.979 17.464 170.843 18.184 171.451 19.128C172.059 20.056 172.363 21.152 172.363 22.416C172.363 23.68 172.059 24.776 171.451 25.704C170.843 26.632 169.979 27.352 168.859 27.864C167.739 28.36 166.419 28.608 164.899 28.608H161.971V33H157.219V16.2H164.899ZM164.611 24.864C165.587 24.864 166.323 24.656 166.819 24.24C167.315 23.808 167.563 23.2 167.563 22.416C167.563 21.632 167.315 21.024 166.819 20.592C166.323 20.16 165.587 19.944 164.611 19.944H161.971V24.864H164.611ZM183.68 26.976V33H178.928V26.904L172.52 16.2H177.536L181.52 22.872L185.504 16.2H190.112L183.68 26.976Z" fill="white"/>
</svg>
