<svg width="32" height="32" viewBox="0 0 32 32" fill="none" xmlns="http://www.w3.org/2000/svg">
<g clip-path="url(#clip0)">
<path d="M21.0013 19.9999L18.7693 18.3266C18.5417 18.1561 18.2818 18.0338 18.0054 17.9671C17.7289 17.9004 17.4418 17.8908 17.1615 17.9389C16.8813 17.9869 16.6137 18.0916 16.3753 18.2465C16.1368 18.4014 15.9324 18.6033 15.7746 18.8399C15.5457 19.1835 15.4236 19.5871 15.4236 19.9999C15.4236 20.4127 15.5457 20.8163 15.7746 21.1599L17.9666 24.4492C18.6399 25.4592 19.6037 26.2411 20.7306 26.6919L24 27.9999V30.9999" stroke="#F2A278" stroke-width="2" stroke-linecap="round" stroke-linejoin="round"/>
<path d="M20 13L24.8 15.0547C26.2165 15.6616 27.3451 16.7902 27.952 18.2067L29.516 21.8667C29.8362 22.6137 30.0013 23.4179 30.0013 24.2307V31" stroke="#F2A278" stroke-width="2" stroke-linecap="round" stroke-linejoin="round"/>
<path d="M20 19.2507V5C20 3.93913 19.5786 2.92172 18.8284 2.17157C18.0783 1.42143 17.0609 1 16 1H6C4.93913 1 3.92172 1.42143 3.17157 2.17157C2.42143 2.92172 2 3.93913 2 5V27C2 28.0609 2.42143 29.0783 3.17157 29.8284C3.92172 30.5786 4.93913 31 6 31H16C17.0609 31 18.0783 30.5786 18.8284 29.8284C19.5786 29.0783 20 28.0609 20 27V26.3333" stroke="#F2A278" stroke-width="2" stroke-linecap="round" stroke-linejoin="round"/>
<path d="M18.3827 25H2.00134" stroke="#F2A278" stroke-width="2" stroke-linecap="round" stroke-linejoin="round"/>
<path d="M7.00134 15L11.0013 19L15.0013 15" stroke="#F2A278" stroke-width="2" stroke-linecap="round" stroke-linejoin="round"/>
<path d="M11.0013 19V5" stroke="#F2A278" stroke-width="2" stroke-linecap="round" stroke-linejoin="round"/>
<path d="M7.00134 9L11.0013 5L15.0013 9" stroke="#F2A278" stroke-width="2" stroke-linecap="round" stroke-linejoin="round"/>
</g>
<defs>
<clipPath id="clip0">
<rect width="32" height="32" fill="white"/>
</clipPath>
</defs>
</svg>
