<svg width="1023" height="762" viewBox="0 0 1023 762" fill="none" xmlns="http://www.w3.org/2000/svg">
<path opacity="0.78" fill-rule="evenodd" clip-rule="evenodd" d="M1017.65 400.298C1026.28 381.688 1022.25 358.878 1006.2 344.434L801.095 159.754C781.395 142.015 751.045 143.606 733.306 163.306C715.568 183.006 717.158 213.357 736.859 231.096L903.139 380.814L735.859 531.434C716.159 549.172 714.568 579.522 732.306 599.223C750.045 618.923 780.395 620.514 800.096 602.776L1005.2 418.096C1010.66 413.196 1014.92 407.107 1017.65 400.298ZM118.947 380.39L285.227 230.671C304.927 212.933 306.517 182.583 288.779 162.882C271.041 143.182 240.691 141.591 220.99 159.329L15.882 344.01C-0.160025 358.456 -4.19402 381.264 4.43998 399.874C7.16708 406.683 11.4242 412.772 16.882 417.672L221.99 602.352C241.69 620.091 272.04 618.5 289.78 598.8C307.518 579.1 305.927 548.749 286.227 531.01L118.947 380.39ZM648.492 3.24398C673.403 12.31 686.247 39.854 677.18 64.766L435.03 730.068C425.963 754.979 398.419 767.823 373.508 758.756C348.597 749.69 335.753 722.146 344.82 697.234L586.97 31.932C596.037 7.02098 623.581 -5.82302 648.492 3.24398Z" fill="#8FFFCF"/>
</svg>
